<?xml version="1.0" standalone="no"?>
 <!DOCTYPE svg PUBLIC "-//W3C//DTD SVG 1.1//EN" 
 "http://www.w3.org/Graphics/SVG/1.1/DTD/svg11.dtd"> 
<svg xmlns="http://www.w3.org/2000/svg" version="1.1" 
    width="9.69772cm" height="7.29996cm" viewBox="0 0 38180 28740 ">
<title>SVG Picture created as presentacion-brd.svg date 2014/07/09 11:52:37 </title>
  <desc>Picture generated by PCBNEW </desc>
<g style="fill:#000000; fill-opacity:1;stroke:#000000; stroke-opacity:1;
stroke-linecap:round; stroke-linejoin:round; "
 transform="translate(0 0) scale(1 1)">
</g>
<g style="fill:#C2C200; fill-opacity:0.0; 
stroke:#C2C200; stroke-width:393.701; stroke-opacity:1; 
stroke-linecap:round; stroke-linejoin:round;">
<path d="M34055 196
L12007 196
" />
<path d="M37992 24606
L37992 4133
" />
<path d="M4133 28543
L34055 28543
" />
<path d="M196 12007
L196 24606
" />
<path d="M37992.1 4133.86 A3937.01 3937.01 0.0 0 0 34055.1 196.851 " />
<path d="M34055.1 28543.3 A3937.01 3937.01 0.0 0 0 37992.1 24606.3 " />
<path d="M196.851 24606.3 A3937.01 3937.01 0.0 0 0 4133.86 28543.3 " />
<path d="M196 12007
L12007 196
" />
</g>
<g style="fill:#008484; fill-opacity:0.0; 
stroke:#008484; stroke-width:120; stroke-opacity:1; 
stroke-linecap:round; stroke-linejoin:round;">
</g>
<g style="fill:#008484; fill-opacity:0.0; 
stroke:#008484; stroke-width:100; stroke-opacity:1; 
stroke-linecap:round; stroke-linejoin:round;">
<path d="M17436 14503
L17597 14341
" />
<path d="M17941 14846
L17516 14422
" />
<path d="M18345 14523
L18298 14530
L18230 14516
L18129 14496
L18082 14503
L18055 14530
" />
<path d="M18170 14617
L18123 14624
L18055 14610
L17961 14543
L17820 14402
L17752 14307
L17739 14240
L17745 14193
L17799 14139
L17846 14132
L17914 14146
L18008 14213
L18149 14354
L18217 14449
L18230 14516
L18224 14563
L18170 14617
" />
<path d="M18284 14058
L18190 14152
" />
<path d="M18412 14375
L17988 13950
L18123 13816
" />
<path d="M18655 14132
L18230 13708
L18338 13600
L18385 13593
L18419 13600
L18473 13627
L18533 13688
L18560 13742
L18567 13775
L18560 13822
L18453 13930
" />
<path d="M19086 13701
L18924 13863
" />
<path d="M19005 13782
L18580 13358
L18614 13445
L18628 13513
L18621 13560
" />
<path d="M19045 13176
L19328 13459
" />
<path d="M18816 13082
L19052 13452
L19227 13277
" />
<path d="M19315 12907
L19597 13189
" />
<path d="M19086 12812
L19321 13183
L19496 13008
" />
</g>
<g style="fill:#008484; fill-opacity:0.0; 
stroke:#008484; stroke-width:120; stroke-opacity:1; 
stroke-linecap:round; stroke-linejoin:round;">
</g>
<g style="fill:#008484; fill-opacity:0.0; 
stroke:#008484; stroke-width:100; stroke-opacity:1; 
stroke-linecap:round; stroke-linejoin:round;">
<path d="M18847 15213
L19365 15543
L19035 15024
" />
<path d="M19419 15247
L19554 15112
" />
<path d="M19513 15395
L19183 14876
L19702 15206
" />
<path d="M19931 14977
L19796 15112
L19372 14688
" />
<path d="M19641 14418
L19742 14519
" />
<path d="M19634 14546
L19742 14519
L19769 14412
" />
<path d="M19783 14641
L19742 14519
L19863 14560
" />
<path d="M19857 14203
L19958 14304
" />
<path d="M19850 14331
L19958 14304
L19985 14196
" />
<path d="M19998 14425
L19958 14304
L20079 14344
" />
</g>
<g style="fill:#008484; fill-opacity:0.0; 
stroke:#008484; stroke-width:120; stroke-opacity:1; 
stroke-linecap:round; stroke-linejoin:round;">
</g>
<g style="fill:#008484; fill-opacity:0.0; 
stroke:#008484; stroke-width:80; stroke-opacity:1; 
stroke-linecap:round; stroke-linejoin:round;">
<path d="M11325 3753
L11553 3753
" />
<path d="M11439 4253
L11439 3753
" />
<path d="M11953 4301
L11915 4277
L11877 4229
L11820 4158
L11782 4134
L11744 4134
" />
<path d="M11763 4253
L11725 4229
L11687 4182
L11668 4087
L11668 3920
L11687 3825
L11725 3777
L11763 3753
L11839 3753
L11877 3777
L11915 3825
L11934 3920
L11934 4087
L11915 4182
L11877 4229
L11839 4253
L11763 4253
" />
<path d="M12239 3991
L12106 3991
" />
<path d="M12106 4253
L12106 3753
L12296 3753
" />
<path d="M12449 4253
L12449 3753
L12601 3753
L12639 3777
L12658 3801
L12677 3848
L12677 3920
L12658 3968
L12639 3991
L12601 4015
L12449 4015
" />
<path d="M12811 3753
L13058 3753
L12925 3944
L12982 3944
L13020 3968
L13039 3991
L13058 4039
L13058 4158
L13039 4206
L13020 4229
L12982 4253
L12868 4253
L12830 4229
L12811 4206
" />
<path d="M13211 3801
L13230 3777
L13268 3753
L13363 3753
L13401 3777
L13420 3801
L13439 3848
L13439 3896
L13420 3968
L13192 4253
L13439 4253
" />
<path d="M11630 5003
L11763 5503
L11896 5003
" />
<path d="M12011 5360
L12201 5360
" />
<path d="M11973 5503
L12106 5003
L12239 5503
" />
<path d="M12563 5503
L12373 5503
L12373 5003
" />
<path d="M12753 5003
L12753 5122
" />
<path d="M12658 5075
L12753 5122
L12849 5075
" />
<path d="M12696 5218
L12753 5122
L12811 5218
" />
<path d="M13058 5003
L13058 5122
" />
<path d="M12963 5075
L13058 5122
L13153 5075
" />
<path d="M13001 5218
L13058 5122
L13115 5218
" />
<path d="M32978 17533
L33207 17533
" />
<path d="M33093 18033
L33093 17533
" />
<path d="M33607 18080
L33569 18057
L33531 18009
L33474 17938
L33436 17914
L33397 17914
" />
<path d="M33417 18033
L33378 18009
L33340 17961
L33321 17866
L33321 17699
L33340 17604
L33378 17557
L33417 17533
L33493 17533
L33531 17557
L33569 17604
L33588 17699
L33588 17866
L33569 17961
L33531 18009
L33493 18033
L33417 18033
" />
<path d="M33893 17771
L33759 17771
" />
<path d="M33759 18033
L33759 17533
L33950 17533
" />
<path d="M34102 18033
L34102 17533
L34255 17533
L34293 17557
L34312 17580
L34331 17628
L34331 17699
L34312 17747
L34293 17771
L34255 17795
L34102 17795
" />
<path d="M34464 17533
L34712 17533
L34578 17723
L34636 17723
L34674 17747
L34693 17771
L34712 17818
L34712 17938
L34693 17985
L34674 18009
L34636 18033
L34521 18033
L34483 18009
L34464 17985
" />
<path d="M34864 17580
L34883 17557
L34921 17533
L35017 17533
L35055 17557
L35074 17580
L35093 17628
L35093 17676
L35074 17747
L34845 18033
L35093 18033
" />
<path d="M33283 18783
L33417 19283
L33550 18783
" />
<path d="M33664 19140
L33855 19140
" />
<path d="M33626 19283
L33759 18783
L33893 19283
" />
<path d="M34217 19283
L34026 19283
L34026 18783
" />
<path d="M34407 18783
L34407 18902
" />
<path d="M34312 18854
L34407 18902
L34502 18854
" />
<path d="M34350 18997
L34407 18902
L34464 18997
" />
<path d="M34712 18783
L34712 18902
" />
<path d="M34617 18854
L34712 18902
L34807 18854
" />
<path d="M34655 18997
L34712 18902
L34769 18997
" />
<path d="M19199 23438
L19427 23438
" />
<path d="M19313 23938
L19313 23438
" />
<path d="M19827 23986
L19789 23962
L19751 23914
L19694 23843
L19656 23819
L19618 23819
" />
<path d="M19637 23938
L19599 23914
L19561 23867
L19542 23772
L19542 23605
L19561 23510
L19599 23462
L19637 23438
L19713 23438
L19751 23462
L19789 23510
L19808 23605
L19808 23772
L19789 23867
L19751 23914
L19713 23938
L19637 23938
" />
<path d="M20113 23676
L19980 23676
" />
<path d="M19980 23938
L19980 23438
L20170 23438
" />
<path d="M20323 23938
L20323 23438
L20475 23438
L20513 23462
L20532 23486
L20551 23534
L20551 23605
L20532 23653
L20513 23676
L20475 23700
L20323 23700
" />
<path d="M20685 23438
L20932 23438
L20799 23629
L20856 23629
L20894 23653
L20913 23676
L20932 23724
L20932 23843
L20913 23891
L20894 23914
L20856 23938
L20742 23938
L20704 23914
L20685 23891
" />
<path d="M21085 23486
L21104 23462
L21142 23438
L21237 23438
L21275 23462
L21294 23486
L21313 23534
L21313 23581
L21294 23653
L21066 23938
L21313 23938
" />
<path d="M19504 24688
L19637 25188
L19770 24688
" />
<path d="M19885 25045
L20075 25045
" />
<path d="M19847 25188
L19980 24688
L20113 25188
" />
<path d="M20437 25188
L20247 25188
L20247 24688
" />
<path d="M20627 24688
L20627 24807
" />
<path d="M20532 24760
L20627 24807
L20723 24760
" />
<path d="M20570 24903
L20627 24807
L20685 24903
" />
<path d="M20932 24688
L20932 24807
" />
<path d="M20837 24760
L20932 24807
L21027 24760
" />
<path d="M20875 24903
L20932 24807
L20989 24903
" />
<path d="M3451 15564
L3679 15564
" />
<path d="M3565 16064
L3565 15564
" />
<path d="M4079 16112
L4041 16088
L4003 16040
L3946 15969
L3908 15945
L3870 15945
" />
<path d="M3889 16064
L3851 16040
L3813 15993
L3794 15898
L3794 15731
L3813 15636
L3851 15588
L3889 15564
L3965 15564
L4003 15588
L4041 15636
L4060 15731
L4060 15898
L4041 15993
L4003 16040
L3965 16064
L3889 16064
" />
<path d="M4365 15802
L4232 15802
" />
<path d="M4232 16064
L4232 15564
L4422 15564
" />
<path d="M4575 16064
L4575 15564
L4727 15564
L4765 15588
L4784 15612
L4803 15660
L4803 15731
L4784 15779
L4765 15802
L4727 15826
L4575 15826
" />
<path d="M4937 15564
L5184 15564
L5051 15755
L5108 15755
L5146 15779
L5165 15802
L5184 15850
L5184 15969
L5165 16017
L5146 16040
L5108 16064
L4994 16064
L4956 16040
L4937 16017
" />
<path d="M5337 15612
L5356 15588
L5394 15564
L5489 15564
L5527 15588
L5546 15612
L5565 15660
L5565 15707
L5546 15779
L5318 16064
L5565 16064
" />
<path d="M3756 16814
L3889 17314
L4022 16814
" />
<path d="M4137 17171
L4327 17171
" />
<path d="M4098 17314
L4232 16814
L4365 17314
" />
<path d="M4689 17314
L4498 17314
L4498 16814
" />
<path d="M4879 16814
L4879 16933
" />
<path d="M4784 16886
L4879 16933
L4975 16886
" />
<path d="M4822 17029
L4879 16933
L4937 17029
" />
<path d="M5184 16814
L5184 16933
" />
<path d="M5089 16886
L5184 16933
L5279 16886
" />
<path d="M5127 17029
L5184 16933
L5241 17029
" />
<path d="M3451 23438
L3679 23438
" />
<path d="M3565 23938
L3565 23438
" />
<path d="M4079 23986
L4041 23962
L4003 23914
L3946 23843
L3908 23819
L3870 23819
" />
<path d="M3889 23938
L3851 23914
L3813 23867
L3794 23772
L3794 23605
L3813 23510
L3851 23462
L3889 23438
L3965 23438
L4003 23462
L4041 23510
L4060 23605
L4060 23772
L4041 23867
L4003 23914
L3965 23938
L3889 23938
" />
<path d="M4365 23676
L4232 23676
" />
<path d="M4232 23938
L4232 23438
L4422 23438
" />
<path d="M4575 23938
L4575 23438
L4727 23438
L4765 23462
L4784 23486
L4803 23534
L4803 23605
L4784 23653
L4765 23676
L4727 23700
L4575 23700
" />
<path d="M4937 23438
L5184 23438
L5051 23629
L5108 23629
L5146 23653
L5165 23676
L5184 23724
L5184 23843
L5165 23891
L5146 23914
L5108 23938
L4994 23938
L4956 23914
L4937 23891
" />
<path d="M5337 23486
L5356 23462
L5394 23438
L5489 23438
L5527 23462
L5546 23486
L5565 23534
L5565 23581
L5546 23653
L5318 23938
L5565 23938
" />
<path d="M3756 24688
L3889 25188
L4022 24688
" />
<path d="M4137 25045
L4327 25045
" />
<path d="M4098 25188
L4232 24688
L4365 25188
" />
<path d="M4689 25188
L4498 25188
L4498 24688
" />
<path d="M4879 24688
L4879 24807
" />
<path d="M4784 24760
L4879 24807
L4975 24760
" />
<path d="M4822 24903
L4879 24807
L4937 24903
" />
<path d="M5184 24688
L5184 24807
" />
<path d="M5089 24760
L5184 24807
L5279 24760
" />
<path d="M5127 24903
L5184 24807
L5241 24903
" />
<path d="M11325 23438
L11553 23438
" />
<path d="M11439 23938
L11439 23438
" />
<path d="M11953 23986
L11915 23962
L11877 23914
L11820 23843
L11782 23819
L11744 23819
" />
<path d="M11763 23938
L11725 23914
L11687 23867
L11668 23772
L11668 23605
L11687 23510
L11725 23462
L11763 23438
L11839 23438
L11877 23462
L11915 23510
L11934 23605
L11934 23772
L11915 23867
L11877 23914
L11839 23938
L11763 23938
" />
<path d="M12239 23676
L12106 23676
" />
<path d="M12106 23938
L12106 23438
L12296 23438
" />
<path d="M12449 23938
L12449 23438
L12601 23438
L12639 23462
L12658 23486
L12677 23534
L12677 23605
L12658 23653
L12639 23676
L12601 23700
L12449 23700
" />
<path d="M12811 23438
L13058 23438
L12925 23629
L12982 23629
L13020 23653
L13039 23676
L13058 23724
L13058 23843
L13039 23891
L13020 23914
L12982 23938
L12868 23938
L12830 23914
L12811 23891
" />
<path d="M13211 23486
L13230 23462
L13268 23438
L13363 23438
L13401 23462
L13420 23486
L13439 23534
L13439 23581
L13420 23653
L13192 23938
L13439 23938
" />
<path d="M11630 24688
L11763 25188
L11896 24688
" />
<path d="M12011 25045
L12201 25045
" />
<path d="M11973 25188
L12106 24688
L12239 25188
" />
<path d="M12563 25188
L12373 25188
L12373 24688
" />
<path d="M12753 24688
L12753 24807
" />
<path d="M12658 24760
L12753 24807
L12849 24760
" />
<path d="M12696 24903
L12753 24807
L12811 24903
" />
<path d="M13058 24688
L13058 24807
" />
<path d="M12963 24760
L13058 24807
L13153 24760
" />
<path d="M13001 24903
L13058 24807
L13115 24903
" />
<path d="M27073 23438
L27301 23438
" />
<path d="M27187 23938
L27187 23438
" />
<path d="M27701 23986
L27663 23962
L27625 23914
L27568 23843
L27530 23819
L27492 23819
" />
<path d="M27511 23938
L27473 23914
L27435 23867
L27416 23772
L27416 23605
L27435 23510
L27473 23462
L27511 23438
L27587 23438
L27625 23462
L27663 23510
L27682 23605
L27682 23772
L27663 23867
L27625 23914
L27587 23938
L27511 23938
" />
<path d="M27987 23676
L27854 23676
" />
<path d="M27854 23938
L27854 23438
L28044 23438
" />
<path d="M28197 23938
L28197 23438
L28349 23438
L28387 23462
L28406 23486
L28425 23534
L28425 23605
L28406 23653
L28387 23676
L28349 23700
L28197 23700
" />
<path d="M28559 23438
L28806 23438
L28673 23629
L28730 23629
L28768 23653
L28787 23676
L28806 23724
L28806 23843
L28787 23891
L28768 23914
L28730 23938
L28616 23938
L28578 23914
L28559 23891
" />
<path d="M28959 23486
L28978 23462
L29016 23438
L29111 23438
L29149 23462
L29168 23486
L29187 23534
L29187 23581
L29168 23653
L28940 23938
L29187 23938
" />
<path d="M27378 24688
L27511 25188
L27644 24688
" />
<path d="M27759 25045
L27949 25045
" />
<path d="M27721 25188
L27854 24688
L27987 25188
" />
<path d="M28311 25188
L28121 25188
L28121 24688
" />
<path d="M28501 24688
L28501 24807
" />
<path d="M28406 24760
L28501 24807
L28597 24760
" />
<path d="M28444 24903
L28501 24807
L28559 24903
" />
<path d="M28806 24688
L28806 24807
" />
<path d="M28711 24760
L28806 24807
L28901 24760
" />
<path d="M28749 24903
L28806 24807
L28863 24903
" />
<path d="M32978 9659
L33207 9659
" />
<path d="M33093 10159
L33093 9659
" />
<path d="M33607 10206
L33569 10183
L33531 10135
L33474 10064
L33436 10040
L33397 10040
" />
<path d="M33417 10159
L33378 10135
L33340 10087
L33321 9992
L33321 9825
L33340 9730
L33378 9683
L33417 9659
L33493 9659
L33531 9683
L33569 9730
L33588 9825
L33588 9992
L33569 10087
L33531 10135
L33493 10159
L33417 10159
" />
<path d="M33893 9897
L33759 9897
" />
<path d="M33759 10159
L33759 9659
L33950 9659
" />
<path d="M34102 10159
L34102 9659
L34255 9659
L34293 9683
L34312 9706
L34331 9754
L34331 9825
L34312 9873
L34293 9897
L34255 9921
L34102 9921
" />
<path d="M34464 9659
L34712 9659
L34578 9849
L34636 9849
L34674 9873
L34693 9897
L34712 9944
L34712 10064
L34693 10111
L34674 10135
L34636 10159
L34521 10159
L34483 10135
L34464 10111
" />
<path d="M34864 9706
L34883 9683
L34921 9659
L35017 9659
L35055 9683
L35074 9706
L35093 9754
L35093 9802
L35074 9873
L34845 10159
L35093 10159
" />
<path d="M33283 10909
L33417 11409
L33550 10909
" />
<path d="M33664 11266
L33855 11266
" />
<path d="M33626 11409
L33759 10909
L33893 11409
" />
<path d="M34217 11409
L34026 11409
L34026 10909
" />
<path d="M34407 10909
L34407 11028
" />
<path d="M34312 10980
L34407 11028
L34502 10980
" />
<path d="M34350 11123
L34407 11028
L34464 11123
" />
<path d="M34712 10909
L34712 11028
" />
<path d="M34617 10980
L34712 11028
L34807 10980
" />
<path d="M34655 11123
L34712 11028
L34769 11123
" />
<path d="M27073 3753
L27301 3753
" />
<path d="M27187 4253
L27187 3753
" />
<path d="M27701 4301
L27663 4277
L27625 4229
L27568 4158
L27530 4134
L27492 4134
" />
<path d="M27511 4253
L27473 4229
L27435 4182
L27416 4087
L27416 3920
L27435 3825
L27473 3777
L27511 3753
L27587 3753
L27625 3777
L27663 3825
L27682 3920
L27682 4087
L27663 4182
L27625 4229
L27587 4253
L27511 4253
" />
<path d="M27987 3991
L27854 3991
" />
<path d="M27854 4253
L27854 3753
L28044 3753
" />
<path d="M28197 4253
L28197 3753
L28349 3753
L28387 3777
L28406 3801
L28425 3848
L28425 3920
L28406 3968
L28387 3991
L28349 4015
L28197 4015
" />
<path d="M28559 3753
L28806 3753
L28673 3944
L28730 3944
L28768 3968
L28787 3991
L28806 4039
L28806 4158
L28787 4206
L28768 4229
L28730 4253
L28616 4253
L28578 4229
L28559 4206
" />
<path d="M28959 3801
L28978 3777
L29016 3753
L29111 3753
L29149 3777
L29168 3801
L29187 3848
L29187 3896
L29168 3968
L28940 4253
L29187 4253
" />
<path d="M27378 5003
L27511 5503
L27644 5003
" />
<path d="M27759 5360
L27949 5360
" />
<path d="M27721 5503
L27854 5003
L27987 5503
" />
<path d="M28311 5503
L28121 5503
L28121 5003
" />
<path d="M28501 5003
L28501 5122
" />
<path d="M28406 5075
L28501 5122
L28597 5075
" />
<path d="M28444 5218
L28501 5122
L28559 5218
" />
<path d="M28806 5003
L28806 5122
" />
<path d="M28711 5075
L28806 5122
L28901 5075
" />
<path d="M28749 5218
L28806 5122
L28863 5218
" />
<path d="M19199 3753
L19427 3753
" />
<path d="M19313 4253
L19313 3753
" />
<path d="M19827 4301
L19789 4277
L19751 4229
L19694 4158
L19656 4134
L19618 4134
" />
<path d="M19637 4253
L19599 4229
L19561 4182
L19542 4087
L19542 3920
L19561 3825
L19599 3777
L19637 3753
L19713 3753
L19751 3777
L19789 3825
L19808 3920
L19808 4087
L19789 4182
L19751 4229
L19713 4253
L19637 4253
" />
<path d="M20113 3991
L19980 3991
" />
<path d="M19980 4253
L19980 3753
L20170 3753
" />
<path d="M20323 4253
L20323 3753
L20475 3753
L20513 3777
L20532 3801
L20551 3848
L20551 3920
L20532 3968
L20513 3991
L20475 4015
L20323 4015
" />
<path d="M20685 3753
L20932 3753
L20799 3944
L20856 3944
L20894 3968
L20913 3991
L20932 4039
L20932 4158
L20913 4206
L20894 4229
L20856 4253
L20742 4253
L20704 4229
L20685 4206
" />
<path d="M21085 3801
L21104 3777
L21142 3753
L21237 3753
L21275 3777
L21294 3801
L21313 3848
L21313 3896
L21294 3968
L21066 4253
L21313 4253
" />
<path d="M19504 5003
L19637 5503
L19770 5003
" />
<path d="M19885 5360
L20075 5360
" />
<path d="M19847 5503
L19980 5003
L20113 5503
" />
<path d="M20437 5503
L20247 5503
L20247 5003
" />
<path d="M20627 5003
L20627 5122
" />
<path d="M20532 5075
L20627 5122
L20723 5075
" />
<path d="M20570 5218
L20627 5122
L20685 5218
" />
<path d="M20932 5003
L20932 5122
" />
<path d="M20837 5075
L20932 5122
L21027 5075
" />
<path d="M20875 5218
L20932 5122
L20989 5218
" />
</g>
<g style="fill:#008484; fill-opacity:0.0; 
stroke:#008484; stroke-width:120; stroke-opacity:1; 
stroke-linecap:round; stroke-linejoin:round;">
<circle cx="19094.5" cy="9773.89" r="250" /> 
<path d="M18882 9349
L18945 9285
" />
<path d="M18945 9285
L18733 9073
" />
<path d="M18670 9137
L18882 9349
" />
<path d="M13614 14193
L13614 14546
" />
<path d="M13614 14546
L18917 19850
" />
<path d="M18917 19850
L19271 19850
" />
<path d="M19271 19850
L24574 14546
" />
<path d="M24574 14546
L24574 14193
" />
<path d="M24574 14193
L19271 8890
" />
<path d="M19271 8890
L18917 8890
" />
<path d="M18917 8890
L13614 14193
" />
</g>
<g style="fill:#008484; fill-opacity:0.0; 
stroke:#008484; stroke-width:60; stroke-opacity:1; 
stroke-linecap:round; stroke-linejoin:round;">
<path d="M14381 5617
L13931 5617
" />
<path d="M14381 3437
L13941 3437
" />
<path d="M14381 5617
L14381 3437
" />
<path d="M13501 6087
L13501 6517
" />
<path d="M11291 6097
L11291 6517
" />
<path d="M11281 6517
L13501 6527
" />
<path d="M11301 2547
L13471 2537
" />
<path d="M10871 3237
L10871 6067
" />
<path d="M13481 2547
L13481 2957
" />
<path d="M11121 2997
L13901 2997
" />
<path d="M13921 6077
L13921 3037
" />
<path d="M10871 6077
L13871 6077
" />
<path d="M10421 3407
L10421 5627
" />
<path d="M10421 5627
L10871 5627
" />
<path d="M10875 3227
L11105 2997
" />
<path d="M10423 3407
L10875 3407
" />
<path d="M11301 2997
L11301 2545
" />
<circle cx="11283.6" cy="3401.56" r="188.68" /> 
<path d="M36035 19397
L35585 19397
" />
<path d="M36035 17217
L35595 17217
" />
<path d="M36035 19397
L36035 17217
" />
<path d="M35155 19867
L35155 20297
" />
<path d="M32945 19877
L32945 20297
" />
<path d="M32935 20297
L35155 20307
" />
<path d="M32955 16327
L35125 16317
" />
<path d="M32525 17017
L32525 19847
" />
<path d="M35135 16327
L35135 16737
" />
<path d="M32775 16777
L35555 16777
" />
<path d="M35575 19857
L35575 16817
" />
<path d="M32525 19857
L35525 19857
" />
<path d="M32075 17187
L32075 19407
" />
<path d="M32075 19407
L32525 19407
" />
<path d="M32529 17007
L32759 16777
" />
<path d="M32077 17187
L32529 17187
" />
<path d="M32955 16777
L32955 16325
" />
<circle cx="32937.1" cy="17181.1" r="188.68" /> 
<path d="M22255 25302
L21805 25302
" />
<path d="M22255 23122
L21815 23122
" />
<path d="M22255 25302
L22255 23122
" />
<path d="M21375 25772
L21375 26202
" />
<path d="M19165 25782
L19165 26202
" />
<path d="M19155 26202
L21375 26212
" />
<path d="M19175 22232
L21345 22222
" />
<path d="M18745 22922
L18745 25752
" />
<path d="M21355 22232
L21355 22642
" />
<path d="M18995 22682
L21775 22682
" />
<path d="M21795 25762
L21795 22722
" />
<path d="M18745 25762
L21745 25762
" />
<path d="M18295 23092
L18295 25312
" />
<path d="M18295 25312
L18745 25312
" />
<path d="M18749 22912
L18979 22682
" />
<path d="M18297 23092
L18749 23092
" />
<path d="M19175 22682
L19175 22230
" />
<circle cx="19157.6" cy="23086.6" r="188.68" /> 
<path d="M6507 17428
L6057 17428
" />
<path d="M6507 15248
L6067 15248
" />
<path d="M6507 17428
L6507 15248
" />
<path d="M5627 17898
L5627 18328
" />
<path d="M3417 17908
L3417 18328
" />
<path d="M3407 18328
L5627 18338
" />
<path d="M3427 14358
L5597 14348
" />
<path d="M2997 15048
L2997 17878
" />
<path d="M5607 14358
L5607 14768
" />
<path d="M3247 14808
L6027 14808
" />
<path d="M6047 17888
L6047 14848
" />
<path d="M2997 17888
L5997 17888
" />
<path d="M2547 15218
L2547 17438
" />
<path d="M2547 17438
L2997 17438
" />
<path d="M3001 15038
L3231 14808
" />
<path d="M2549 15218
L3001 15218
" />
<path d="M3427 14808
L3427 14356
" />
<circle cx="3409.56" cy="15212.6" r="188.68" /> 
<path d="M6507 25302
L6057 25302
" />
<path d="M6507 23122
L6067 23122
" />
<path d="M6507 25302
L6507 23122
" />
<path d="M5627 25772
L5627 26202
" />
<path d="M3417 25782
L3417 26202
" />
<path d="M3407 26202
L5627 26212
" />
<path d="M3427 22232
L5597 22222
" />
<path d="M2997 22922
L2997 25752
" />
<path d="M5607 22232
L5607 22642
" />
<path d="M3247 22682
L6027 22682
" />
<path d="M6047 25762
L6047 22722
" />
<path d="M2997 25762
L5997 25762
" />
<path d="M2547 23092
L2547 25312
" />
<path d="M2547 25312
L2997 25312
" />
<path d="M3001 22912
L3231 22682
" />
<path d="M2549 23092
L3001 23092
" />
<path d="M3427 22682
L3427 22230
" />
<circle cx="3409.56" cy="23086.6" r="188.68" /> 
<path d="M14381 25302
L13931 25302
" />
<path d="M14381 23122
L13941 23122
" />
<path d="M14381 25302
L14381 23122
" />
<path d="M13501 25772
L13501 26202
" />
<path d="M11291 25782
L11291 26202
" />
<path d="M11281 26202
L13501 26212
" />
<path d="M11301 22232
L13471 22222
" />
<path d="M10871 22922
L10871 25752
" />
<path d="M13481 22232
L13481 22642
" />
<path d="M11121 22682
L13901 22682
" />
<path d="M13921 25762
L13921 22722
" />
<path d="M10871 25762
L13871 25762
" />
<path d="M10421 23092
L10421 25312
" />
<path d="M10421 25312
L10871 25312
" />
<path d="M10875 22912
L11105 22682
" />
<path d="M10423 23092
L10875 23092
" />
<path d="M11301 22682
L11301 22230
" />
<circle cx="11283.6" cy="23086.6" r="188.68" /> 
<path d="M30129 25302
L29679 25302
" />
<path d="M30129 23122
L29689 23122
" />
<path d="M30129 25302
L30129 23122
" />
<path d="M29249 25772
L29249 26202
" />
<path d="M27039 25782
L27039 26202
" />
<path d="M27029 26202
L29249 26212
" />
<path d="M27049 22232
L29219 22222
" />
<path d="M26619 22922
L26619 25752
" />
<path d="M29229 22232
L29229 22642
" />
<path d="M26869 22682
L29649 22682
" />
<path d="M29669 25762
L29669 22722
" />
<path d="M26619 25762
L29619 25762
" />
<path d="M26169 23092
L26169 25312
" />
<path d="M26169 25312
L26619 25312
" />
<path d="M26623 22912
L26853 22682
" />
<path d="M26171 23092
L26623 23092
" />
<path d="M27049 22682
L27049 22230
" />
<circle cx="27031.6" cy="23086.6" r="188.68" /> 
<path d="M36035 11523
L35585 11523
" />
<path d="M36035 9343
L35595 9343
" />
<path d="M36035 11523
L36035 9343
" />
<path d="M35155 11993
L35155 12423
" />
<path d="M32945 12003
L32945 12423
" />
<path d="M32935 12423
L35155 12433
" />
<path d="M32955 8453
L35125 8443
" />
<path d="M32525 9143
L32525 11973
" />
<path d="M35135 8453
L35135 8863
" />
<path d="M32775 8903
L35555 8903
" />
<path d="M35575 11983
L35575 8943
" />
<path d="M32525 11983
L35525 11983
" />
<path d="M32075 9313
L32075 11533
" />
<path d="M32075 11533
L32525 11533
" />
<path d="M32529 9133
L32759 8903
" />
<path d="M32077 9313
L32529 9313
" />
<path d="M32955 8903
L32955 8451
" />
<circle cx="32937.1" cy="9307.07" r="188.68" /> 
<path d="M30129 5617
L29679 5617
" />
<path d="M30129 3437
L29689 3437
" />
<path d="M30129 5617
L30129 3437
" />
<path d="M29249 6087
L29249 6517
" />
<path d="M27039 6097
L27039 6517
" />
<path d="M27029 6517
L29249 6527
" />
<path d="M27049 2547
L29219 2537
" />
<path d="M26619 3237
L26619 6067
" />
<path d="M29229 2547
L29229 2957
" />
<path d="M26869 2997
L29649 2997
" />
<path d="M29669 6077
L29669 3037
" />
<path d="M26619 6077
L29619 6077
" />
<path d="M26169 3407
L26169 5627
" />
<path d="M26169 5627
L26619 5627
" />
<path d="M26623 3227
L26853 2997
" />
<path d="M26171 3407
L26623 3407
" />
<path d="M27049 2997
L27049 2545
" />
<circle cx="27031.6" cy="3401.56" r="188.68" /> 
<path d="M22255 5617
L21805 5617
" />
<path d="M22255 3437
L21815 3437
" />
<path d="M22255 5617
L22255 3437
" />
<path d="M21375 6087
L21375 6517
" />
<path d="M19165 6097
L19165 6517
" />
<path d="M19155 6517
L21375 6527
" />
<path d="M19175 2547
L21345 2537
" />
<path d="M18745 3237
L18745 6067
" />
<path d="M21355 2547
L21355 2957
" />
<path d="M18995 2997
L21775 2997
" />
<path d="M21795 6077
L21795 3037
" />
<path d="M18745 6077
L21745 6077
" />
<path d="M18295 3407
L18295 5627
" />
<path d="M18295 5627
L18745 5627
" />
<path d="M18749 3227
L18979 2997
" />
<path d="M18297 3407
L18749 3407
" />
<path d="M19175 2997
L19175 2545
" />
<circle cx="19157.6" cy="3401.56" r="188.68" /> 
</g>
<g style="fill:#840000; fill-opacity:0.0; 
stroke:#840000; stroke-width:39.3701; stroke-opacity:1; 
stroke-linecap:round; stroke-linejoin:round;">
</g>
<g style="fill:#840000; fill-opacity:1.0; 
stroke:#840000; stroke-width:39.3701; stroke-opacity:1; 
stroke-linecap:round; stroke-linejoin:round;">
<polyline style="fill-rule:evenodd;"
points="18649,9095
18252,8699
18295,8656
18691,9052
18649,9095
" /> 
<polyline style="fill-rule:evenodd;"
points="18507,9236
18111,8840
18154,8797
18550,9194
18507,9236
" /> 
<polyline style="fill-rule:evenodd;"
points="18369,9374
17973,8978
18016,8935
18412,9331
18369,9374
" /> 
<polyline style="fill-rule:evenodd;"
points="18231,9512
17835,9116
17878,9073
18274,9469
18231,9512
" /> 
<polyline style="fill-rule:evenodd;"
points="18090,9654
17693,9257
17736,9214
18133,9611
18090,9654
" /> 
<polyline style="fill-rule:evenodd;"
points="17952,9792
17556,9395
17598,9352
17995,9749
17952,9792
" /> 
<polyline style="fill-rule:evenodd;"
points="17814,9929
17418,9533
17461,9490
17857,9887
17814,9929
" /> 
<polyline style="fill-rule:evenodd;"
points="17673,10071
17276,9674
17319,9632
17716,10028
17673,10071
" /> 
<polyline style="fill-rule:evenodd;"
points="17535,10209
17138,9812
17181,9769
17578,10166
17535,10209
" /> 
<polyline style="fill-rule:evenodd;"
points="17397,10347
17001,9950
17043,9907
17440,10304
17397,10347
" /> 
<polyline style="fill-rule:evenodd;"
points="17256,10488
16859,10092
16902,10049
17298,10445
17256,10488
" /> 
<polyline style="fill-rule:evenodd;"
points="17118,10626
16721,10229
16764,10187
17160,10583
17118,10626
" /> 
<polyline style="fill-rule:evenodd;"
points="16980,10764
16583,10367
16626,10324
17023,10721
16980,10764
" /> 
<polyline style="fill-rule:evenodd;"
points="16838,10905
16442,10509
16485,10466
16881,10862
16838,10905
" /> 
<polyline style="fill-rule:evenodd;"
points="16700,11043
16304,10647
16347,10604
16743,11000
16700,11043
" /> 
<polyline style="fill-rule:evenodd;"
points="16563,11181
16166,10785
16209,10742
16605,11138
16563,11181
" /> 
<polyline style="fill-rule:evenodd;"
points="16421,11322
16025,10926
16068,10883
16464,11280
16421,11322
" /> 
<polyline style="fill-rule:evenodd;"
points="16283,11460
15887,11064
15930,11021
16326,11417
16283,11460
" /> 
<polyline style="fill-rule:evenodd;"
points="16142,11602
15745,11205
15788,11162
16185,11559
16142,11602
" /> 
<polyline style="fill-rule:evenodd;"
points="16004,11740
15608,11343
15650,11300
16047,11697
16004,11740
" /> 
<polyline style="fill-rule:evenodd;"
points="15863,11881
15466,11485
15509,11442
15905,11838
15863,11881
" /> 
<polyline style="fill-rule:evenodd;"
points="15725,12019
15328,11622
15371,11580
15767,11976
15725,12019
" /> 
<polyline style="fill-rule:evenodd;"
points="15587,12157
15190,11760
15233,11717
15630,12114
15587,12157
" /> 
<polyline style="fill-rule:evenodd;"
points="15445,12298
15049,11902
15092,11859
15488,12255
15445,12298
" /> 
<polyline style="fill-rule:evenodd;"
points="15307,12436
14911,12040
14954,11997
15350,12393
15307,12436
" /> 
<polyline style="fill-rule:evenodd;"
points="15170,12574
14773,12178
14816,12135
15212,12531
15170,12574
" /> 
<polyline style="fill-rule:evenodd;"
points="15028,12715
14632,12319
14675,12276
15071,12673
15028,12715
" /> 
<polyline style="fill-rule:evenodd;"
points="14890,12853
14494,12457
14537,12414
14933,12810
14890,12853
" /> 
<polyline style="fill-rule:evenodd;"
points="14752,12991
14356,12595
14399,12552
14795,12948
14752,12991
" /> 
<polyline style="fill-rule:evenodd;"
points="14611,13133
14215,12736
14257,12693
14654,13090
14611,13133
" /> 
<polyline style="fill-rule:evenodd;"
points="14473,13270
14077,12874
14119,12831
14516,13228
14473,13270
" /> 
<polyline style="fill-rule:evenodd;"
points="14335,13408
13939,13012
13982,12969
14378,13365
14335,13408
" /> 
<polyline style="fill-rule:evenodd;"
points="14194,13550
13797,13153
13840,13110
14237,13507
14194,13550
" /> 
<polyline style="fill-rule:evenodd;"
points="14056,13688
13659,13291
13702,13248
14099,13645
14056,13688
" /> 
<polyline style="fill-rule:evenodd;"
points="13918,13826
13522,13429
13564,13386
13961,13783
13918,13826
" /> 
<polyline style="fill-rule:evenodd;"
points="13777,13967
13380,13571
13423,13528
13819,13924
13777,13967
" /> 
<polyline style="fill-rule:evenodd;"
points="17461,19249
17418,19206
17814,18810
17857,18853
17461,19249
" /> 
<polyline style="fill-rule:evenodd;"
points="17598,19387
17556,19344
17952,18948
17995,18991
17598,19387
" /> 
<polyline style="fill-rule:evenodd;"
points="17736,19525
17693,19482
18090,19086
18133,19128
17736,19525
" /> 
<polyline style="fill-rule:evenodd;"
points="17878,19666
17835,19623
18231,19227
18274,19270
17878,19666
" /> 
<polyline style="fill-rule:evenodd;"
points="18016,19804
17973,19761
18369,19365
18412,19408
18016,19804
" /> 
<polyline style="fill-rule:evenodd;"
points="18154,19942
18111,19899
18507,19503
18550,19546
18154,19942
" /> 
<polyline style="fill-rule:evenodd;"
points="18295,20083
18252,20041
18649,19644
18691,19687
18295,20083
" /> 
<polyline style="fill-rule:evenodd;"
points="23715,13270
23672,13228
24068,12831
24111,12874
23715,13270
" /> 
<polyline style="fill-rule:evenodd;"
points="23577,13133
23534,13090
23931,12693
23973,12736
23577,13133
" /> 
<polyline style="fill-rule:evenodd;"
points="23436,12991
23393,12948
23789,12552
23832,12595
23436,12991
" /> 
<polyline style="fill-rule:evenodd;"
points="23298,12853
23255,12810
23651,12414
23694,12457
23298,12853
" /> 
<polyline style="fill-rule:evenodd;"
points="23160,12715
23117,12673
23513,12276
23556,12319
23160,12715
" /> 
<polyline style="fill-rule:evenodd;"
points="23018,12574
22976,12531
23372,12135
23415,12178
23018,12574
" /> 
<polyline style="fill-rule:evenodd;"
points="22881,12436
22838,12393
23234,11997
23277,12040
22881,12436
" /> 
<polyline style="fill-rule:evenodd;"
points="22743,12298
22700,12255
23096,11859
23139,11902
22743,12298
" /> 
<polyline style="fill-rule:evenodd;"
points="22601,12157
22558,12114
22955,11717
22998,11760
22601,12157
" /> 
<polyline style="fill-rule:evenodd;"
points="22463,12019
22420,11976
22817,11580
22860,11622
22463,12019
" /> 
<polyline style="fill-rule:evenodd;"
points="22325,11881
22283,11838
22679,11442
22722,11485
22325,11881
" /> 
<polyline style="fill-rule:evenodd;"
points="22184,11740
22141,11697
22538,11300
22580,11343
22184,11740
" /> 
<polyline style="fill-rule:evenodd;"
points="22046,11602
22003,11559
22400,11162
22443,11205
22046,11602
" /> 
<polyline style="fill-rule:evenodd;"
points="21905,11460
21862,11417
22258,11021
22301,11064
21905,11460
" /> 
<polyline style="fill-rule:evenodd;"
points="21767,11322
21724,11280
22120,10883
22163,10926
21767,11322
" /> 
<polyline style="fill-rule:evenodd;"
points="21625,11181
21583,11138
21979,10742
22022,10785
21625,11181
" /> 
<polyline style="fill-rule:evenodd;"
points="21488,11043
21445,11000
21841,10604
21884,10647
21488,11043
" /> 
<polyline style="fill-rule:evenodd;"
points="21350,10905
21307,10862
21703,10466
21746,10509
21350,10905
" /> 
<polyline style="fill-rule:evenodd;"
points="21208,10764
21165,10721
21562,10324
21605,10367
21208,10764
" /> 
<polyline style="fill-rule:evenodd;"
points="21070,10626
21027,10583
21424,10187
21467,10229
21070,10626
" /> 
<polyline style="fill-rule:evenodd;"
points="20932,10488
20890,10445
21286,10049
21329,10092
20932,10488
" /> 
<polyline style="fill-rule:evenodd;"
points="20791,10347
20748,10304
21145,9907
21187,9950
20791,10347
" /> 
<polyline style="fill-rule:evenodd;"
points="20653,10209
20610,10166
21007,9769
21050,9812
20653,10209
" /> 
<polyline style="fill-rule:evenodd;"
points="20515,10071
20472,10028
20869,9632
20912,9674
20515,10071
" /> 
<polyline style="fill-rule:evenodd;"
points="20374,9929
20331,9887
20727,9490
20770,9533
20374,9929
" /> 
<polyline style="fill-rule:evenodd;"
points="20236,9792
20193,9749
20590,9352
20632,9395
20236,9792
" /> 
<polyline style="fill-rule:evenodd;"
points="20098,9654
20055,9611
20452,9214
20495,9257
20098,9654
" /> 
<polyline style="fill-rule:evenodd;"
points="19957,9512
19914,9469
20310,9073
20353,9116
19957,9512
" /> 
<polyline style="fill-rule:evenodd;"
points="19819,9374
19776,9331
20172,8935
20215,8978
19819,9374
" /> 
<polyline style="fill-rule:evenodd;"
points="19681,9236
19638,9194
20034,8797
20077,8840
19681,9236
" /> 
<polyline style="fill-rule:evenodd;"
points="19539,9095
19497,9052
19893,8656
19936,8699
19539,9095
" /> 
<polyline style="fill-rule:evenodd;"
points="13423,15211
13380,15169
13777,14772
13819,14815
13423,15211
" /> 
<polyline style="fill-rule:evenodd;"
points="13564,15353
13522,15310
13918,14914
13961,14956
13564,15353
" /> 
<polyline style="fill-rule:evenodd;"
points="13702,15491
13659,15448
14056,15051
14099,15094
13702,15491
" /> 
<polyline style="fill-rule:evenodd;"
points="13840,15629
13797,15586
14194,15189
14237,15232
13840,15629
" /> 
<polyline style="fill-rule:evenodd;"
points="13982,15770
13939,15727
14335,15331
14378,15374
13982,15770
" /> 
<polyline style="fill-rule:evenodd;"
points="14119,15908
14077,15865
14473,15469
14516,15512
14119,15908
" /> 
<polyline style="fill-rule:evenodd;"
points="14257,16046
14215,16003
14611,15607
14654,15649
14257,16046
" /> 
<polyline style="fill-rule:evenodd;"
points="14399,16187
14356,16144
14752,15748
14795,15791
14399,16187
" /> 
<polyline style="fill-rule:evenodd;"
points="14537,16325
14494,16282
14890,15886
14933,15929
14537,16325
" /> 
<polyline style="fill-rule:evenodd;"
points="14675,16463
14632,16420
15028,16024
15071,16067
14675,16463
" /> 
<polyline style="fill-rule:evenodd;"
points="14816,16604
14773,16562
15170,16165
15212,16208
14816,16604
" /> 
<polyline style="fill-rule:evenodd;"
points="14954,16742
14911,16699
15307,16303
15350,16346
14954,16742
" /> 
<polyline style="fill-rule:evenodd;"
points="15092,16880
15049,16837
15445,16441
15488,16484
15092,16880
" /> 
<polyline style="fill-rule:evenodd;"
points="15233,17022
15190,16979
15587,16582
15630,16625
15233,17022
" /> 
<polyline style="fill-rule:evenodd;"
points="15371,17160
15328,17117
15725,16720
15767,16763
15371,17160
" /> 
<polyline style="fill-rule:evenodd;"
points="15509,17297
15466,17255
15863,16858
15905,16901
15509,17297
" /> 
<polyline style="fill-rule:evenodd;"
points="15650,17439
15608,17396
16004,17000
16047,17042
15650,17439
" /> 
<polyline style="fill-rule:evenodd;"
points="15788,17577
15745,17534
16142,17137
16185,17180
15788,17577
" /> 
<polyline style="fill-rule:evenodd;"
points="15930,17718
15887,17675
16283,17279
16326,17322
15930,17718
" /> 
<polyline style="fill-rule:evenodd;"
points="16068,17856
16025,17813
16421,17417
16464,17460
16068,17856
" /> 
<polyline style="fill-rule:evenodd;"
points="16209,17997
16166,17955
16563,17558
16605,17601
16209,17997
" /> 
<polyline style="fill-rule:evenodd;"
points="16347,18135
16304,18092
16700,17696
16743,17739
16347,18135
" /> 
<polyline style="fill-rule:evenodd;"
points="16485,18273
16442,18230
16838,17834
16881,17877
16485,18273
" /> 
<polyline style="fill-rule:evenodd;"
points="16626,18415
16583,18372
16980,17975
17023,18018
16626,18415
" /> 
<polyline style="fill-rule:evenodd;"
points="16764,18553
16721,18510
17118,18113
17160,18156
16764,18553
" /> 
<polyline style="fill-rule:evenodd;"
points="16902,18690
16859,18648
17256,18251
17298,18294
16902,18690
" /> 
<polyline style="fill-rule:evenodd;"
points="17043,18832
17001,18789
17397,18393
17440,18435
17043,18832
" /> 
<polyline style="fill-rule:evenodd;"
points="17181,18970
17138,18927
17535,18530
17578,18573
17181,18970
" /> 
<polyline style="fill-rule:evenodd;"
points="17319,19108
17276,19065
17673,18668
17716,18711
17319,19108
" /> 
<polyline style="fill-rule:evenodd;"
points="20590,19387
20193,18991
20236,18948
20632,19344
20590,19387
" /> 
<polyline style="fill-rule:evenodd;"
points="20727,19249
20331,18853
20374,18810
20770,19206
20727,19249
" /> 
<polyline style="fill-rule:evenodd;"
points="20869,19108
20472,18711
20515,18668
20912,19065
20869,19108
" /> 
<polyline style="fill-rule:evenodd;"
points="21007,18970
20610,18573
20653,18530
21050,18927
21007,18970
" /> 
<polyline style="fill-rule:evenodd;"
points="21145,18832
20748,18435
20791,18393
21187,18789
21145,18832
" /> 
<polyline style="fill-rule:evenodd;"
points="21286,18690
20890,18294
20932,18251
21329,18648
21286,18690
" /> 
<polyline style="fill-rule:evenodd;"
points="21424,18553
21027,18156
21070,18113
21467,18510
21424,18553
" /> 
<polyline style="fill-rule:evenodd;"
points="21562,18415
21165,18018
21208,17975
21605,18372
21562,18415
" /> 
<polyline style="fill-rule:evenodd;"
points="21703,18273
21307,17877
21350,17834
21746,18230
21703,18273
" /> 
<polyline style="fill-rule:evenodd;"
points="21841,18135
21445,17739
21488,17696
21884,18092
21841,18135
" /> 
<polyline style="fill-rule:evenodd;"
points="21979,17997
21583,17601
21625,17558
22022,17955
21979,17997
" /> 
<polyline style="fill-rule:evenodd;"
points="22120,17856
21724,17460
21767,17417
22163,17813
22120,17856
" /> 
<polyline style="fill-rule:evenodd;"
points="22258,17718
21862,17322
21905,17279
22301,17675
22258,17718
" /> 
<polyline style="fill-rule:evenodd;"
points="22400,17577
22003,17180
22046,17137
22443,17534
22400,17577
" /> 
<polyline style="fill-rule:evenodd;"
points="22538,17439
22141,17042
22184,17000
22580,17396
22538,17439
" /> 
<polyline style="fill-rule:evenodd;"
points="22679,17297
22283,16901
22325,16858
22722,17255
22679,17297
" /> 
<polyline style="fill-rule:evenodd;"
points="22817,17160
22420,16763
22463,16720
22860,17117
22817,17160
" /> 
<polyline style="fill-rule:evenodd;"
points="22955,17022
22558,16625
22601,16582
22998,16979
22955,17022
" /> 
<polyline style="fill-rule:evenodd;"
points="23096,16880
22700,16484
22743,16441
23139,16837
23096,16880
" /> 
<polyline style="fill-rule:evenodd;"
points="23234,16742
22838,16346
22881,16303
23277,16699
23234,16742
" /> 
<polyline style="fill-rule:evenodd;"
points="23372,16604
22976,16208
23018,16165
23415,16562
23372,16604
" /> 
<polyline style="fill-rule:evenodd;"
points="23513,16463
23117,16067
23160,16024
23556,16420
23513,16463
" /> 
<polyline style="fill-rule:evenodd;"
points="23651,16325
23255,15929
23298,15886
23694,16282
23651,16325
" /> 
<polyline style="fill-rule:evenodd;"
points="23789,16187
23393,15791
23436,15748
23832,16144
23789,16187
" /> 
<polyline style="fill-rule:evenodd;"
points="23931,16046
23534,15649
23577,15607
23973,16003
23931,16046
" /> 
<polyline style="fill-rule:evenodd;"
points="24068,15908
23672,15512
23715,15469
24111,15865
24068,15908
" /> 
<polyline style="fill-rule:evenodd;"
points="24206,15770
23810,15374
23853,15331
24249,15727
24206,15770
" /> 
<polyline style="fill-rule:evenodd;"
points="24348,15629
23951,15232
23994,15189
24391,15586
24348,15629
" /> 
<polyline style="fill-rule:evenodd;"
points="24486,15491
24089,15094
24132,15051
24529,15448
24486,15491
" /> 
<polyline style="fill-rule:evenodd;"
points="24624,15353
24227,14956
24270,14914
24666,15310
24624,15353
" /> 
<polyline style="fill-rule:evenodd;"
points="24765,15211
24369,14815
24411,14772
24808,15169
24765,15211
" /> 
<polyline style="fill-rule:evenodd;"
points="19893,20083
19497,19687
19539,19644
19936,20041
19893,20083
" /> 
<polyline style="fill-rule:evenodd;"
points="20034,19942
19638,19546
19681,19503
20077,19899
20034,19942
" /> 
<polyline style="fill-rule:evenodd;"
points="20172,19804
19776,19408
19819,19365
20215,19761
20172,19804
" /> 
<polyline style="fill-rule:evenodd;"
points="20310,19666
19914,19270
19957,19227
20353,19623
20310,19666
" /> 
<polyline style="fill-rule:evenodd;"
points="20452,19525
20055,19128
20098,19086
20495,19482
20452,19525
" /> 
<polyline style="fill-rule:evenodd;"
points="24411,13967
24369,13924
24765,13528
24808,13571
24411,13967
" /> 
<polyline style="fill-rule:evenodd;"
points="24270,13826
24227,13783
24624,13386
24666,13429
24270,13826
" /> 
<polyline style="fill-rule:evenodd;"
points="24132,13688
24089,13645
24486,13248
24529,13291
24132,13688
" /> 
<polyline style="fill-rule:evenodd;"
points="23994,13550
23951,13507
24348,13110
24391,13153
23994,13550
" /> 
<polyline style="fill-rule:evenodd;"
points="23853,13408
23810,13365
24206,12969
24249,13012
23853,13408
" /> 
<polyline style="fill-rule:evenodd;"
points="10131,5689
10131,5551
10879,5551
10879,5689
10131,5689
" /> 
<polyline style="fill-rule:evenodd;"
points="10131,5374
10131,5236
10879,5236
10879,5374
10131,5374
" /> 
<polyline style="fill-rule:evenodd;"
points="10131,5059
10131,4921
10879,4921
10879,5059
10131,5059
" /> 
<polyline style="fill-rule:evenodd;"
points="10131,4744
10131,4606
10879,4606
10879,4744
10131,4744
" /> 
<polyline style="fill-rule:evenodd;"
points="10131,4429
10131,4291
10879,4291
10879,4429
10131,4429
" /> 
<polyline style="fill-rule:evenodd;"
points="10131,4114
10131,3976
10879,3976
10879,4114
10131,4114
" /> 
<polyline style="fill-rule:evenodd;"
points="10131,3799
10131,3661
10879,3661
10879,3799
10131,3799
" /> 
<polyline style="fill-rule:evenodd;"
points="10131,3484
10131,3346
10879,3346
10879,3484
10131,3484
" /> 
<polyline style="fill-rule:evenodd;"
points="13897,3486
13897,3348
14645,3348
14645,3486
13897,3486
" /> 
<polyline style="fill-rule:evenodd;"
points="13897,5696
13897,5558
14645,5558
14645,5696
13897,5696
" /> 
<polyline style="fill-rule:evenodd;"
points="13897,5376
13897,5238
14645,5238
14645,5376
13897,5376
" /> 
<polyline style="fill-rule:evenodd;"
points="13897,5056
13897,4918
14645,4918
14645,5056
13897,5056
" /> 
<polyline style="fill-rule:evenodd;"
points="13897,4746
13897,4608
14645,4608
14645,4746
13897,4746
" /> 
<polyline style="fill-rule:evenodd;"
points="13897,4426
13897,4288
14645,4288
14645,4426
13897,4426
" /> 
<polyline style="fill-rule:evenodd;"
points="13897,4116
13897,3978
14645,3978
14645,4116
13897,4116
" /> 
<polyline style="fill-rule:evenodd;"
points="13897,3796
13897,3658
14645,3658
14645,3796
13897,3796
" /> 
<polyline style="fill-rule:evenodd;"
points="11220,3001
11220,2253
11358,2253
11358,3001
11220,3001
" /> 
<polyline style="fill-rule:evenodd;"
points="11534,3001
11534,2253
11672,2253
11672,3001
11534,3001
" /> 
<polyline style="fill-rule:evenodd;"
points="11850,3001
11850,2253
11988,2253
11988,3001
11850,3001
" /> 
<polyline style="fill-rule:evenodd;"
points="12164,3001
12164,2253
12302,2253
12302,3001
12164,3001
" /> 
<polyline style="fill-rule:evenodd;"
points="12480,3001
12480,2253
12618,2253
12618,3001
12480,3001
" /> 
<polyline style="fill-rule:evenodd;"
points="12794,3001
12794,2253
12932,2253
12932,3001
12794,3001
" /> 
<polyline style="fill-rule:evenodd;"
points="13110,3001
13110,2253
13248,2253
13248,3001
13110,3001
" /> 
<polyline style="fill-rule:evenodd;"
points="13424,3001
13424,2253
13562,2253
13562,3001
13424,3001
" /> 
<polyline style="fill-rule:evenodd;"
points="11222,6781
11222,6033
11360,6033
11360,6781
11222,6781
" /> 
<polyline style="fill-rule:evenodd;"
points="11532,6781
11532,6033
11670,6033
11670,6781
11532,6781
" /> 
<polyline style="fill-rule:evenodd;"
points="11852,6781
11852,6033
11990,6033
11990,6781
11852,6781
" /> 
<polyline style="fill-rule:evenodd;"
points="12162,6781
12162,6033
12300,6033
12300,6781
12162,6781
" /> 
<polyline style="fill-rule:evenodd;"
points="12472,6781
12472,6033
12610,6033
12610,6781
12472,6781
" /> 
<polyline style="fill-rule:evenodd;"
points="12792,6781
12792,6033
12930,6033
12930,6781
12792,6781
" /> 
<polyline style="fill-rule:evenodd;"
points="13112,6781
13112,6033
13250,6033
13250,6781
13112,6781
" /> 
<polyline style="fill-rule:evenodd;"
points="13432,6781
13432,6033
13570,6033
13570,6781
13432,6781
" /> 
<polyline style="fill-rule:evenodd;"
points="31785,19468
31785,19331
32532,19331
32532,19468
31785,19468
" /> 
<polyline style="fill-rule:evenodd;"
points="31785,19153
31785,19016
32532,19016
32532,19153
31785,19153
" /> 
<polyline style="fill-rule:evenodd;"
points="31785,18838
31785,18701
32532,18701
32532,18838
31785,18838
" /> 
<polyline style="fill-rule:evenodd;"
points="31785,18523
31785,18386
32532,18386
32532,18523
31785,18523
" /> 
<polyline style="fill-rule:evenodd;"
points="31785,18208
31785,18071
32532,18071
32532,18208
31785,18208
" /> 
<polyline style="fill-rule:evenodd;"
points="31785,17893
31785,17756
32532,17756
32532,17893
31785,17893
" /> 
<polyline style="fill-rule:evenodd;"
points="31785,17578
31785,17441
32532,17441
32532,17578
31785,17578
" /> 
<polyline style="fill-rule:evenodd;"
points="31785,17263
31785,17126
32532,17126
32532,17263
31785,17263
" /> 
<polyline style="fill-rule:evenodd;"
points="35551,17265
35551,17128
36298,17128
36298,17265
35551,17265
" /> 
<polyline style="fill-rule:evenodd;"
points="35551,19475
35551,19338
36298,19338
36298,19475
35551,19475
" /> 
<polyline style="fill-rule:evenodd;"
points="35551,19155
35551,19018
36298,19018
36298,19155
35551,19155
" /> 
<polyline style="fill-rule:evenodd;"
points="35551,18835
35551,18698
36298,18698
36298,18835
35551,18835
" /> 
<polyline style="fill-rule:evenodd;"
points="35551,18525
35551,18388
36298,18388
36298,18525
35551,18525
" /> 
<polyline style="fill-rule:evenodd;"
points="35551,18205
35551,18068
36298,18068
36298,18205
35551,18205
" /> 
<polyline style="fill-rule:evenodd;"
points="35551,17895
35551,17758
36298,17758
36298,17895
35551,17895
" /> 
<polyline style="fill-rule:evenodd;"
points="35551,17575
35551,17438
36298,17438
36298,17575
35551,17575
" /> 
<polyline style="fill-rule:evenodd;"
points="32874,16780
32874,16033
33011,16033
33011,16780
32874,16780
" /> 
<polyline style="fill-rule:evenodd;"
points="33188,16780
33188,16033
33325,16033
33325,16780
33188,16780
" /> 
<polyline style="fill-rule:evenodd;"
points="33504,16780
33504,16033
33641,16033
33641,16780
33504,16780
" /> 
<polyline style="fill-rule:evenodd;"
points="33818,16780
33818,16033
33955,16033
33955,16780
33818,16780
" /> 
<polyline style="fill-rule:evenodd;"
points="34134,16780
34134,16033
34271,16033
34271,16780
34134,16780
" /> 
<polyline style="fill-rule:evenodd;"
points="34448,16780
34448,16033
34585,16033
34585,16780
34448,16780
" /> 
<polyline style="fill-rule:evenodd;"
points="34764,16780
34764,16033
34901,16033
34901,16780
34764,16780
" /> 
<polyline style="fill-rule:evenodd;"
points="35078,16780
35078,16033
35215,16033
35215,16780
35078,16780
" /> 
<polyline style="fill-rule:evenodd;"
points="32876,20560
32876,19813
33013,19813
33013,20560
32876,20560
" /> 
<polyline style="fill-rule:evenodd;"
points="33186,20560
33186,19813
33323,19813
33323,20560
33186,20560
" /> 
<polyline style="fill-rule:evenodd;"
points="33506,20560
33506,19813
33643,19813
33643,20560
33506,20560
" /> 
<polyline style="fill-rule:evenodd;"
points="33816,20560
33816,19813
33953,19813
33953,20560
33816,20560
" /> 
<polyline style="fill-rule:evenodd;"
points="34126,20560
34126,19813
34263,19813
34263,20560
34126,20560
" /> 
<polyline style="fill-rule:evenodd;"
points="34446,20560
34446,19813
34583,19813
34583,20560
34446,20560
" /> 
<polyline style="fill-rule:evenodd;"
points="34766,20560
34766,19813
34903,19813
34903,20560
34766,20560
" /> 
<polyline style="fill-rule:evenodd;"
points="35086,20560
35086,19813
35223,19813
35223,20560
35086,20560
" /> 
<polyline style="fill-rule:evenodd;"
points="18005,25374
18005,25236
18753,25236
18753,25374
18005,25374
" /> 
<polyline style="fill-rule:evenodd;"
points="18005,25059
18005,24921
18753,24921
18753,25059
18005,25059
" /> 
<polyline style="fill-rule:evenodd;"
points="18005,24744
18005,24606
18753,24606
18753,24744
18005,24744
" /> 
<polyline style="fill-rule:evenodd;"
points="18005,24429
18005,24291
18753,24291
18753,24429
18005,24429
" /> 
<polyline style="fill-rule:evenodd;"
points="18005,24114
18005,23976
18753,23976
18753,24114
18005,24114
" /> 
<polyline style="fill-rule:evenodd;"
points="18005,23799
18005,23661
18753,23661
18753,23799
18005,23799
" /> 
<polyline style="fill-rule:evenodd;"
points="18005,23484
18005,23346
18753,23346
18753,23484
18005,23484
" /> 
<polyline style="fill-rule:evenodd;"
points="18005,23169
18005,23031
18753,23031
18753,23169
18005,23169
" /> 
<polyline style="fill-rule:evenodd;"
points="21771,23171
21771,23033
22519,23033
22519,23171
21771,23171
" /> 
<polyline style="fill-rule:evenodd;"
points="21771,25381
21771,25243
22519,25243
22519,25381
21771,25381
" /> 
<polyline style="fill-rule:evenodd;"
points="21771,25061
21771,24923
22519,24923
22519,25061
21771,25061
" /> 
<polyline style="fill-rule:evenodd;"
points="21771,24741
21771,24603
22519,24603
22519,24741
21771,24741
" /> 
<polyline style="fill-rule:evenodd;"
points="21771,24431
21771,24293
22519,24293
22519,24431
21771,24431
" /> 
<polyline style="fill-rule:evenodd;"
points="21771,24111
21771,23973
22519,23973
22519,24111
21771,24111
" /> 
<polyline style="fill-rule:evenodd;"
points="21771,23801
21771,23663
22519,23663
22519,23801
21771,23801
" /> 
<polyline style="fill-rule:evenodd;"
points="21771,23481
21771,23343
22519,23343
22519,23481
21771,23481
" /> 
<polyline style="fill-rule:evenodd;"
points="19094,22686
19094,21938
19232,21938
19232,22686
19094,22686
" /> 
<polyline style="fill-rule:evenodd;"
points="19408,22686
19408,21938
19546,21938
19546,22686
19408,22686
" /> 
<polyline style="fill-rule:evenodd;"
points="19724,22686
19724,21938
19862,21938
19862,22686
19724,22686
" /> 
<polyline style="fill-rule:evenodd;"
points="20038,22686
20038,21938
20176,21938
20176,22686
20038,22686
" /> 
<polyline style="fill-rule:evenodd;"
points="20354,22686
20354,21938
20492,21938
20492,22686
20354,22686
" /> 
<polyline style="fill-rule:evenodd;"
points="20668,22686
20668,21938
20806,21938
20806,22686
20668,22686
" /> 
<polyline style="fill-rule:evenodd;"
points="20984,22686
20984,21938
21122,21938
21122,22686
20984,22686
" /> 
<polyline style="fill-rule:evenodd;"
points="21298,22686
21298,21938
21436,21938
21436,22686
21298,22686
" /> 
<polyline style="fill-rule:evenodd;"
points="19096,26466
19096,25718
19234,25718
19234,26466
19096,26466
" /> 
<polyline style="fill-rule:evenodd;"
points="19406,26466
19406,25718
19544,25718
19544,26466
19406,26466
" /> 
<polyline style="fill-rule:evenodd;"
points="19726,26466
19726,25718
19864,25718
19864,26466
19726,26466
" /> 
<polyline style="fill-rule:evenodd;"
points="20036,26466
20036,25718
20174,25718
20174,26466
20036,26466
" /> 
<polyline style="fill-rule:evenodd;"
points="20346,26466
20346,25718
20484,25718
20484,26466
20346,26466
" /> 
<polyline style="fill-rule:evenodd;"
points="20666,26466
20666,25718
20804,25718
20804,26466
20666,26466
" /> 
<polyline style="fill-rule:evenodd;"
points="20986,26466
20986,25718
21124,25718
21124,26466
20986,26466
" /> 
<polyline style="fill-rule:evenodd;"
points="21306,26466
21306,25718
21444,25718
21444,26466
21306,26466
" /> 
<polyline style="fill-rule:evenodd;"
points="2257,17500
2257,17362
3005,17362
3005,17500
2257,17500
" /> 
<polyline style="fill-rule:evenodd;"
points="2257,17185
2257,17047
3005,17047
3005,17185
2257,17185
" /> 
<polyline style="fill-rule:evenodd;"
points="2257,16870
2257,16732
3005,16732
3005,16870
2257,16870
" /> 
<polyline style="fill-rule:evenodd;"
points="2257,16555
2257,16417
3005,16417
3005,16555
2257,16555
" /> 
<polyline style="fill-rule:evenodd;"
points="2257,16240
2257,16102
3005,16102
3005,16240
2257,16240
" /> 
<polyline style="fill-rule:evenodd;"
points="2257,15925
2257,15787
3005,15787
3005,15925
2257,15925
" /> 
<polyline style="fill-rule:evenodd;"
points="2257,15610
2257,15472
3005,15472
3005,15610
2257,15610
" /> 
<polyline style="fill-rule:evenodd;"
points="2257,15295
2257,15157
3005,15157
3005,15295
2257,15295
" /> 
<polyline style="fill-rule:evenodd;"
points="6023,15297
6023,15159
6771,15159
6771,15297
6023,15297
" /> 
<polyline style="fill-rule:evenodd;"
points="6023,17507
6023,17369
6771,17369
6771,17507
6023,17507
" /> 
<polyline style="fill-rule:evenodd;"
points="6023,17187
6023,17049
6771,17049
6771,17187
6023,17187
" /> 
<polyline style="fill-rule:evenodd;"
points="6023,16867
6023,16729
6771,16729
6771,16867
6023,16867
" /> 
<polyline style="fill-rule:evenodd;"
points="6023,16557
6023,16419
6771,16419
6771,16557
6023,16557
" /> 
<polyline style="fill-rule:evenodd;"
points="6023,16237
6023,16099
6771,16099
6771,16237
6023,16237
" /> 
<polyline style="fill-rule:evenodd;"
points="6023,15927
6023,15789
6771,15789
6771,15927
6023,15927
" /> 
<polyline style="fill-rule:evenodd;"
points="6023,15607
6023,15469
6771,15469
6771,15607
6023,15607
" /> 
<polyline style="fill-rule:evenodd;"
points="3346,14812
3346,14064
3484,14064
3484,14812
3346,14812
" /> 
<polyline style="fill-rule:evenodd;"
points="3660,14812
3660,14064
3798,14064
3798,14812
3660,14812
" /> 
<polyline style="fill-rule:evenodd;"
points="3976,14812
3976,14064
4114,14064
4114,14812
3976,14812
" /> 
<polyline style="fill-rule:evenodd;"
points="4290,14812
4290,14064
4428,14064
4428,14812
4290,14812
" /> 
<polyline style="fill-rule:evenodd;"
points="4606,14812
4606,14064
4744,14064
4744,14812
4606,14812
" /> 
<polyline style="fill-rule:evenodd;"
points="4920,14812
4920,14064
5058,14064
5058,14812
4920,14812
" /> 
<polyline style="fill-rule:evenodd;"
points="5236,14812
5236,14064
5374,14064
5374,14812
5236,14812
" /> 
<polyline style="fill-rule:evenodd;"
points="5550,14812
5550,14064
5688,14064
5688,14812
5550,14812
" /> 
<polyline style="fill-rule:evenodd;"
points="3348,18592
3348,17844
3486,17844
3486,18592
3348,18592
" /> 
<polyline style="fill-rule:evenodd;"
points="3658,18592
3658,17844
3796,17844
3796,18592
3658,18592
" /> 
<polyline style="fill-rule:evenodd;"
points="3978,18592
3978,17844
4116,17844
4116,18592
3978,18592
" /> 
<polyline style="fill-rule:evenodd;"
points="4288,18592
4288,17844
4426,17844
4426,18592
4288,18592
" /> 
<polyline style="fill-rule:evenodd;"
points="4598,18592
4598,17844
4736,17844
4736,18592
4598,18592
" /> 
<polyline style="fill-rule:evenodd;"
points="4918,18592
4918,17844
5056,17844
5056,18592
4918,18592
" /> 
<polyline style="fill-rule:evenodd;"
points="5238,18592
5238,17844
5376,17844
5376,18592
5238,18592
" /> 
<polyline style="fill-rule:evenodd;"
points="5558,18592
5558,17844
5696,17844
5696,18592
5558,18592
" /> 
<polyline style="fill-rule:evenodd;"
points="2257,25374
2257,25236
3005,25236
3005,25374
2257,25374
" /> 
<polyline style="fill-rule:evenodd;"
points="2257,25059
2257,24921
3005,24921
3005,25059
2257,25059
" /> 
<polyline style="fill-rule:evenodd;"
points="2257,24744
2257,24606
3005,24606
3005,24744
2257,24744
" /> 
<polyline style="fill-rule:evenodd;"
points="2257,24429
2257,24291
3005,24291
3005,24429
2257,24429
" /> 
<polyline style="fill-rule:evenodd;"
points="2257,24114
2257,23976
3005,23976
3005,24114
2257,24114
" /> 
<polyline style="fill-rule:evenodd;"
points="2257,23799
2257,23661
3005,23661
3005,23799
2257,23799
" /> 
<polyline style="fill-rule:evenodd;"
points="2257,23484
2257,23346
3005,23346
3005,23484
2257,23484
" /> 
<polyline style="fill-rule:evenodd;"
points="2257,23169
2257,23031
3005,23031
3005,23169
2257,23169
" /> 
<polyline style="fill-rule:evenodd;"
points="6023,23171
6023,23033
6771,23033
6771,23171
6023,23171
" /> 
<polyline style="fill-rule:evenodd;"
points="6023,25381
6023,25243
6771,25243
6771,25381
6023,25381
" /> 
<polyline style="fill-rule:evenodd;"
points="6023,25061
6023,24923
6771,24923
6771,25061
6023,25061
" /> 
<polyline style="fill-rule:evenodd;"
points="6023,24741
6023,24603
6771,24603
6771,24741
6023,24741
" /> 
<polyline style="fill-rule:evenodd;"
points="6023,24431
6023,24293
6771,24293
6771,24431
6023,24431
" /> 
<polyline style="fill-rule:evenodd;"
points="6023,24111
6023,23973
6771,23973
6771,24111
6023,24111
" /> 
<polyline style="fill-rule:evenodd;"
points="6023,23801
6023,23663
6771,23663
6771,23801
6023,23801
" /> 
<polyline style="fill-rule:evenodd;"
points="6023,23481
6023,23343
6771,23343
6771,23481
6023,23481
" /> 
<polyline style="fill-rule:evenodd;"
points="3346,22686
3346,21938
3484,21938
3484,22686
3346,22686
" /> 
<polyline style="fill-rule:evenodd;"
points="3660,22686
3660,21938
3798,21938
3798,22686
3660,22686
" /> 
<polyline style="fill-rule:evenodd;"
points="3976,22686
3976,21938
4114,21938
4114,22686
3976,22686
" /> 
<polyline style="fill-rule:evenodd;"
points="4290,22686
4290,21938
4428,21938
4428,22686
4290,22686
" /> 
<polyline style="fill-rule:evenodd;"
points="4606,22686
4606,21938
4744,21938
4744,22686
4606,22686
" /> 
<polyline style="fill-rule:evenodd;"
points="4920,22686
4920,21938
5058,21938
5058,22686
4920,22686
" /> 
<polyline style="fill-rule:evenodd;"
points="5236,22686
5236,21938
5374,21938
5374,22686
5236,22686
" /> 
<polyline style="fill-rule:evenodd;"
points="5550,22686
5550,21938
5688,21938
5688,22686
5550,22686
" /> 
<polyline style="fill-rule:evenodd;"
points="3348,26466
3348,25718
3486,25718
3486,26466
3348,26466
" /> 
<polyline style="fill-rule:evenodd;"
points="3658,26466
3658,25718
3796,25718
3796,26466
3658,26466
" /> 
<polyline style="fill-rule:evenodd;"
points="3978,26466
3978,25718
4116,25718
4116,26466
3978,26466
" /> 
<polyline style="fill-rule:evenodd;"
points="4288,26466
4288,25718
4426,25718
4426,26466
4288,26466
" /> 
<polyline style="fill-rule:evenodd;"
points="4598,26466
4598,25718
4736,25718
4736,26466
4598,26466
" /> 
<polyline style="fill-rule:evenodd;"
points="4918,26466
4918,25718
5056,25718
5056,26466
4918,26466
" /> 
<polyline style="fill-rule:evenodd;"
points="5238,26466
5238,25718
5376,25718
5376,26466
5238,26466
" /> 
<polyline style="fill-rule:evenodd;"
points="5558,26466
5558,25718
5696,25718
5696,26466
5558,26466
" /> 
<polyline style="fill-rule:evenodd;"
points="10131,25374
10131,25236
10879,25236
10879,25374
10131,25374
" /> 
<polyline style="fill-rule:evenodd;"
points="10131,25059
10131,24921
10879,24921
10879,25059
10131,25059
" /> 
<polyline style="fill-rule:evenodd;"
points="10131,24744
10131,24606
10879,24606
10879,24744
10131,24744
" /> 
<polyline style="fill-rule:evenodd;"
points="10131,24429
10131,24291
10879,24291
10879,24429
10131,24429
" /> 
<polyline style="fill-rule:evenodd;"
points="10131,24114
10131,23976
10879,23976
10879,24114
10131,24114
" /> 
<polyline style="fill-rule:evenodd;"
points="10131,23799
10131,23661
10879,23661
10879,23799
10131,23799
" /> 
<polyline style="fill-rule:evenodd;"
points="10131,23484
10131,23346
10879,23346
10879,23484
10131,23484
" /> 
<polyline style="fill-rule:evenodd;"
points="10131,23169
10131,23031
10879,23031
10879,23169
10131,23169
" /> 
<polyline style="fill-rule:evenodd;"
points="13897,23171
13897,23033
14645,23033
14645,23171
13897,23171
" /> 
<polyline style="fill-rule:evenodd;"
points="13897,25381
13897,25243
14645,25243
14645,25381
13897,25381
" /> 
<polyline style="fill-rule:evenodd;"
points="13897,25061
13897,24923
14645,24923
14645,25061
13897,25061
" /> 
<polyline style="fill-rule:evenodd;"
points="13897,24741
13897,24603
14645,24603
14645,24741
13897,24741
" /> 
<polyline style="fill-rule:evenodd;"
points="13897,24431
13897,24293
14645,24293
14645,24431
13897,24431
" /> 
<polyline style="fill-rule:evenodd;"
points="13897,24111
13897,23973
14645,23973
14645,24111
13897,24111
" /> 
<polyline style="fill-rule:evenodd;"
points="13897,23801
13897,23663
14645,23663
14645,23801
13897,23801
" /> 
<polyline style="fill-rule:evenodd;"
points="13897,23481
13897,23343
14645,23343
14645,23481
13897,23481
" /> 
<polyline style="fill-rule:evenodd;"
points="11220,22686
11220,21938
11358,21938
11358,22686
11220,22686
" /> 
<polyline style="fill-rule:evenodd;"
points="11534,22686
11534,21938
11672,21938
11672,22686
11534,22686
" /> 
<polyline style="fill-rule:evenodd;"
points="11850,22686
11850,21938
11988,21938
11988,22686
11850,22686
" /> 
<polyline style="fill-rule:evenodd;"
points="12164,22686
12164,21938
12302,21938
12302,22686
12164,22686
" /> 
<polyline style="fill-rule:evenodd;"
points="12480,22686
12480,21938
12618,21938
12618,22686
12480,22686
" /> 
<polyline style="fill-rule:evenodd;"
points="12794,22686
12794,21938
12932,21938
12932,22686
12794,22686
" /> 
<polyline style="fill-rule:evenodd;"
points="13110,22686
13110,21938
13248,21938
13248,22686
13110,22686
" /> 
<polyline style="fill-rule:evenodd;"
points="13424,22686
13424,21938
13562,21938
13562,22686
13424,22686
" /> 
<polyline style="fill-rule:evenodd;"
points="11222,26466
11222,25718
11360,25718
11360,26466
11222,26466
" /> 
<polyline style="fill-rule:evenodd;"
points="11532,26466
11532,25718
11670,25718
11670,26466
11532,26466
" /> 
<polyline style="fill-rule:evenodd;"
points="11852,26466
11852,25718
11990,25718
11990,26466
11852,26466
" /> 
<polyline style="fill-rule:evenodd;"
points="12162,26466
12162,25718
12300,25718
12300,26466
12162,26466
" /> 
<polyline style="fill-rule:evenodd;"
points="12472,26466
12472,25718
12610,25718
12610,26466
12472,26466
" /> 
<polyline style="fill-rule:evenodd;"
points="12792,26466
12792,25718
12930,25718
12930,26466
12792,26466
" /> 
<polyline style="fill-rule:evenodd;"
points="13112,26466
13112,25718
13250,25718
13250,26466
13112,26466
" /> 
<polyline style="fill-rule:evenodd;"
points="13432,26466
13432,25718
13570,25718
13570,26466
13432,26466
" /> 
<polyline style="fill-rule:evenodd;"
points="25879,25374
25879,25236
26627,25236
26627,25374
25879,25374
" /> 
<polyline style="fill-rule:evenodd;"
points="25879,25059
25879,24921
26627,24921
26627,25059
25879,25059
" /> 
<polyline style="fill-rule:evenodd;"
points="25879,24744
25879,24606
26627,24606
26627,24744
25879,24744
" /> 
<polyline style="fill-rule:evenodd;"
points="25879,24429
25879,24291
26627,24291
26627,24429
25879,24429
" /> 
<polyline style="fill-rule:evenodd;"
points="25879,24114
25879,23976
26627,23976
26627,24114
25879,24114
" /> 
<polyline style="fill-rule:evenodd;"
points="25879,23799
25879,23661
26627,23661
26627,23799
25879,23799
" /> 
<polyline style="fill-rule:evenodd;"
points="25879,23484
25879,23346
26627,23346
26627,23484
25879,23484
" /> 
<polyline style="fill-rule:evenodd;"
points="25879,23169
25879,23031
26627,23031
26627,23169
25879,23169
" /> 
<polyline style="fill-rule:evenodd;"
points="29645,23171
29645,23033
30393,23033
30393,23171
29645,23171
" /> 
<polyline style="fill-rule:evenodd;"
points="29645,25381
29645,25243
30393,25243
30393,25381
29645,25381
" /> 
<polyline style="fill-rule:evenodd;"
points="29645,25061
29645,24923
30393,24923
30393,25061
29645,25061
" /> 
<polyline style="fill-rule:evenodd;"
points="29645,24741
29645,24603
30393,24603
30393,24741
29645,24741
" /> 
<polyline style="fill-rule:evenodd;"
points="29645,24431
29645,24293
30393,24293
30393,24431
29645,24431
" /> 
<polyline style="fill-rule:evenodd;"
points="29645,24111
29645,23973
30393,23973
30393,24111
29645,24111
" /> 
<polyline style="fill-rule:evenodd;"
points="29645,23801
29645,23663
30393,23663
30393,23801
29645,23801
" /> 
<polyline style="fill-rule:evenodd;"
points="29645,23481
29645,23343
30393,23343
30393,23481
29645,23481
" /> 
<polyline style="fill-rule:evenodd;"
points="26968,22686
26968,21938
27106,21938
27106,22686
26968,22686
" /> 
<polyline style="fill-rule:evenodd;"
points="27282,22686
27282,21938
27420,21938
27420,22686
27282,22686
" /> 
<polyline style="fill-rule:evenodd;"
points="27598,22686
27598,21938
27736,21938
27736,22686
27598,22686
" /> 
<polyline style="fill-rule:evenodd;"
points="27912,22686
27912,21938
28050,21938
28050,22686
27912,22686
" /> 
<polyline style="fill-rule:evenodd;"
points="28228,22686
28228,21938
28366,21938
28366,22686
28228,22686
" /> 
<polyline style="fill-rule:evenodd;"
points="28542,22686
28542,21938
28680,21938
28680,22686
28542,22686
" /> 
<polyline style="fill-rule:evenodd;"
points="28858,22686
28858,21938
28996,21938
28996,22686
28858,22686
" /> 
<polyline style="fill-rule:evenodd;"
points="29172,22686
29172,21938
29310,21938
29310,22686
29172,22686
" /> 
<polyline style="fill-rule:evenodd;"
points="26970,26466
26970,25718
27108,25718
27108,26466
26970,26466
" /> 
<polyline style="fill-rule:evenodd;"
points="27280,26466
27280,25718
27418,25718
27418,26466
27280,26466
" /> 
<polyline style="fill-rule:evenodd;"
points="27600,26466
27600,25718
27738,25718
27738,26466
27600,26466
" /> 
<polyline style="fill-rule:evenodd;"
points="27910,26466
27910,25718
28048,25718
28048,26466
27910,26466
" /> 
<polyline style="fill-rule:evenodd;"
points="28220,26466
28220,25718
28358,25718
28358,26466
28220,26466
" /> 
<polyline style="fill-rule:evenodd;"
points="28540,26466
28540,25718
28678,25718
28678,26466
28540,26466
" /> 
<polyline style="fill-rule:evenodd;"
points="28860,26466
28860,25718
28998,25718
28998,26466
28860,26466
" /> 
<polyline style="fill-rule:evenodd;"
points="29180,26466
29180,25718
29318,25718
29318,26466
29180,26466
" /> 
<polyline style="fill-rule:evenodd;"
points="31785,11594
31785,11457
32532,11457
32532,11594
31785,11594
" /> 
<polyline style="fill-rule:evenodd;"
points="31785,11279
31785,11142
32532,11142
32532,11279
31785,11279
" /> 
<polyline style="fill-rule:evenodd;"
points="31785,10964
31785,10827
32532,10827
32532,10964
31785,10964
" /> 
<polyline style="fill-rule:evenodd;"
points="31785,10649
31785,10512
32532,10512
32532,10649
31785,10649
" /> 
<polyline style="fill-rule:evenodd;"
points="31785,10334
31785,10197
32532,10197
32532,10334
31785,10334
" /> 
<polyline style="fill-rule:evenodd;"
points="31785,10019
31785,9882
32532,9882
32532,10019
31785,10019
" /> 
<polyline style="fill-rule:evenodd;"
points="31785,9704
31785,9567
32532,9567
32532,9704
31785,9704
" /> 
<polyline style="fill-rule:evenodd;"
points="31785,9389
31785,9252
32532,9252
32532,9389
31785,9389
" /> 
<polyline style="fill-rule:evenodd;"
points="35551,9391
35551,9254
36298,9254
36298,9391
35551,9391
" /> 
<polyline style="fill-rule:evenodd;"
points="35551,11601
35551,11464
36298,11464
36298,11601
35551,11601
" /> 
<polyline style="fill-rule:evenodd;"
points="35551,11281
35551,11144
36298,11144
36298,11281
35551,11281
" /> 
<polyline style="fill-rule:evenodd;"
points="35551,10961
35551,10824
36298,10824
36298,10961
35551,10961
" /> 
<polyline style="fill-rule:evenodd;"
points="35551,10651
35551,10514
36298,10514
36298,10651
35551,10651
" /> 
<polyline style="fill-rule:evenodd;"
points="35551,10331
35551,10194
36298,10194
36298,10331
35551,10331
" /> 
<polyline style="fill-rule:evenodd;"
points="35551,10021
35551,9884
36298,9884
36298,10021
35551,10021
" /> 
<polyline style="fill-rule:evenodd;"
points="35551,9701
35551,9564
36298,9564
36298,9701
35551,9701
" /> 
<polyline style="fill-rule:evenodd;"
points="32874,8906
32874,8159
33011,8159
33011,8906
32874,8906
" /> 
<polyline style="fill-rule:evenodd;"
points="33188,8906
33188,8159
33325,8159
33325,8906
33188,8906
" /> 
<polyline style="fill-rule:evenodd;"
points="33504,8906
33504,8159
33641,8159
33641,8906
33504,8906
" /> 
<polyline style="fill-rule:evenodd;"
points="33818,8906
33818,8159
33955,8159
33955,8906
33818,8906
" /> 
<polyline style="fill-rule:evenodd;"
points="34134,8906
34134,8159
34271,8159
34271,8906
34134,8906
" /> 
<polyline style="fill-rule:evenodd;"
points="34448,8906
34448,8159
34585,8159
34585,8906
34448,8906
" /> 
<polyline style="fill-rule:evenodd;"
points="34764,8906
34764,8159
34901,8159
34901,8906
34764,8906
" /> 
<polyline style="fill-rule:evenodd;"
points="35078,8906
35078,8159
35215,8159
35215,8906
35078,8906
" /> 
<polyline style="fill-rule:evenodd;"
points="32876,12686
32876,11939
33013,11939
33013,12686
32876,12686
" /> 
<polyline style="fill-rule:evenodd;"
points="33186,12686
33186,11939
33323,11939
33323,12686
33186,12686
" /> 
<polyline style="fill-rule:evenodd;"
points="33506,12686
33506,11939
33643,11939
33643,12686
33506,12686
" /> 
<polyline style="fill-rule:evenodd;"
points="33816,12686
33816,11939
33953,11939
33953,12686
33816,12686
" /> 
<polyline style="fill-rule:evenodd;"
points="34126,12686
34126,11939
34263,11939
34263,12686
34126,12686
" /> 
<polyline style="fill-rule:evenodd;"
points="34446,12686
34446,11939
34583,11939
34583,12686
34446,12686
" /> 
<polyline style="fill-rule:evenodd;"
points="34766,12686
34766,11939
34903,11939
34903,12686
34766,12686
" /> 
<polyline style="fill-rule:evenodd;"
points="35086,12686
35086,11939
35223,11939
35223,12686
35086,12686
" /> 
<polyline style="fill-rule:evenodd;"
points="25879,5689
25879,5551
26627,5551
26627,5689
25879,5689
" /> 
<polyline style="fill-rule:evenodd;"
points="25879,5374
25879,5236
26627,5236
26627,5374
25879,5374
" /> 
<polyline style="fill-rule:evenodd;"
points="25879,5059
25879,4921
26627,4921
26627,5059
25879,5059
" /> 
<polyline style="fill-rule:evenodd;"
points="25879,4744
25879,4606
26627,4606
26627,4744
25879,4744
" /> 
<polyline style="fill-rule:evenodd;"
points="25879,4429
25879,4291
26627,4291
26627,4429
25879,4429
" /> 
<polyline style="fill-rule:evenodd;"
points="25879,4114
25879,3976
26627,3976
26627,4114
25879,4114
" /> 
<polyline style="fill-rule:evenodd;"
points="25879,3799
25879,3661
26627,3661
26627,3799
25879,3799
" /> 
<polyline style="fill-rule:evenodd;"
points="25879,3484
25879,3346
26627,3346
26627,3484
25879,3484
" /> 
<polyline style="fill-rule:evenodd;"
points="29645,3486
29645,3348
30393,3348
30393,3486
29645,3486
" /> 
<polyline style="fill-rule:evenodd;"
points="29645,5696
29645,5558
30393,5558
30393,5696
29645,5696
" /> 
<polyline style="fill-rule:evenodd;"
points="29645,5376
29645,5238
30393,5238
30393,5376
29645,5376
" /> 
<polyline style="fill-rule:evenodd;"
points="29645,5056
29645,4918
30393,4918
30393,5056
29645,5056
" /> 
<polyline style="fill-rule:evenodd;"
points="29645,4746
29645,4608
30393,4608
30393,4746
29645,4746
" /> 
<polyline style="fill-rule:evenodd;"
points="29645,4426
29645,4288
30393,4288
30393,4426
29645,4426
" /> 
<polyline style="fill-rule:evenodd;"
points="29645,4116
29645,3978
30393,3978
30393,4116
29645,4116
" /> 
<polyline style="fill-rule:evenodd;"
points="29645,3796
29645,3658
30393,3658
30393,3796
29645,3796
" /> 
<polyline style="fill-rule:evenodd;"
points="26968,3001
26968,2253
27106,2253
27106,3001
26968,3001
" /> 
<polyline style="fill-rule:evenodd;"
points="27282,3001
27282,2253
27420,2253
27420,3001
27282,3001
" /> 
<polyline style="fill-rule:evenodd;"
points="27598,3001
27598,2253
27736,2253
27736,3001
27598,3001
" /> 
<polyline style="fill-rule:evenodd;"
points="27912,3001
27912,2253
28050,2253
28050,3001
27912,3001
" /> 
<polyline style="fill-rule:evenodd;"
points="28228,3001
28228,2253
28366,2253
28366,3001
28228,3001
" /> 
<polyline style="fill-rule:evenodd;"
points="28542,3001
28542,2253
28680,2253
28680,3001
28542,3001
" /> 
<polyline style="fill-rule:evenodd;"
points="28858,3001
28858,2253
28996,2253
28996,3001
28858,3001
" /> 
<polyline style="fill-rule:evenodd;"
points="29172,3001
29172,2253
29310,2253
29310,3001
29172,3001
" /> 
<polyline style="fill-rule:evenodd;"
points="26970,6781
26970,6033
27108,6033
27108,6781
26970,6781
" /> 
<polyline style="fill-rule:evenodd;"
points="27280,6781
27280,6033
27418,6033
27418,6781
27280,6781
" /> 
<polyline style="fill-rule:evenodd;"
points="27600,6781
27600,6033
27738,6033
27738,6781
27600,6781
" /> 
<polyline style="fill-rule:evenodd;"
points="27910,6781
27910,6033
28048,6033
28048,6781
27910,6781
" /> 
<polyline style="fill-rule:evenodd;"
points="28220,6781
28220,6033
28358,6033
28358,6781
28220,6781
" /> 
<polyline style="fill-rule:evenodd;"
points="28540,6781
28540,6033
28678,6033
28678,6781
28540,6781
" /> 
<polyline style="fill-rule:evenodd;"
points="28860,6781
28860,6033
28998,6033
28998,6781
28860,6781
" /> 
<polyline style="fill-rule:evenodd;"
points="29180,6781
29180,6033
29318,6033
29318,6781
29180,6781
" /> 
<polyline style="fill-rule:evenodd;"
points="18005,5689
18005,5551
18753,5551
18753,5689
18005,5689
" /> 
<polyline style="fill-rule:evenodd;"
points="18005,5374
18005,5236
18753,5236
18753,5374
18005,5374
" /> 
<polyline style="fill-rule:evenodd;"
points="18005,5059
18005,4921
18753,4921
18753,5059
18005,5059
" /> 
<polyline style="fill-rule:evenodd;"
points="18005,4744
18005,4606
18753,4606
18753,4744
18005,4744
" /> 
<polyline style="fill-rule:evenodd;"
points="18005,4429
18005,4291
18753,4291
18753,4429
18005,4429
" /> 
<polyline style="fill-rule:evenodd;"
points="18005,4114
18005,3976
18753,3976
18753,4114
18005,4114
" /> 
<polyline style="fill-rule:evenodd;"
points="18005,3799
18005,3661
18753,3661
18753,3799
18005,3799
" /> 
<polyline style="fill-rule:evenodd;"
points="18005,3484
18005,3346
18753,3346
18753,3484
18005,3484
" /> 
<polyline style="fill-rule:evenodd;"
points="21771,3486
21771,3348
22519,3348
22519,3486
21771,3486
" /> 
<polyline style="fill-rule:evenodd;"
points="21771,5696
21771,5558
22519,5558
22519,5696
21771,5696
" /> 
<polyline style="fill-rule:evenodd;"
points="21771,5376
21771,5238
22519,5238
22519,5376
21771,5376
" /> 
<polyline style="fill-rule:evenodd;"
points="21771,5056
21771,4918
22519,4918
22519,5056
21771,5056
" /> 
<polyline style="fill-rule:evenodd;"
points="21771,4746
21771,4608
22519,4608
22519,4746
21771,4746
" /> 
<polyline style="fill-rule:evenodd;"
points="21771,4426
21771,4288
22519,4288
22519,4426
21771,4426
" /> 
<polyline style="fill-rule:evenodd;"
points="21771,4116
21771,3978
22519,3978
22519,4116
21771,4116
" /> 
<polyline style="fill-rule:evenodd;"
points="21771,3796
21771,3658
22519,3658
22519,3796
21771,3796
" /> 
<polyline style="fill-rule:evenodd;"
points="19094,3001
19094,2253
19232,2253
19232,3001
19094,3001
" /> 
<polyline style="fill-rule:evenodd;"
points="19408,3001
19408,2253
19546,2253
19546,3001
19408,3001
" /> 
<polyline style="fill-rule:evenodd;"
points="19724,3001
19724,2253
19862,2253
19862,3001
19724,3001
" /> 
<polyline style="fill-rule:evenodd;"
points="20038,3001
20038,2253
20176,2253
20176,3001
20038,3001
" /> 
<polyline style="fill-rule:evenodd;"
points="20354,3001
20354,2253
20492,2253
20492,3001
20354,3001
" /> 
<polyline style="fill-rule:evenodd;"
points="20668,3001
20668,2253
20806,2253
20806,3001
20668,3001
" /> 
<polyline style="fill-rule:evenodd;"
points="20984,3001
20984,2253
21122,2253
21122,3001
20984,3001
" /> 
<polyline style="fill-rule:evenodd;"
points="21298,3001
21298,2253
21436,2253
21436,3001
21298,3001
" /> 
<polyline style="fill-rule:evenodd;"
points="19096,6781
19096,6033
19234,6033
19234,6781
19096,6781
" /> 
<polyline style="fill-rule:evenodd;"
points="19406,6781
19406,6033
19544,6033
19544,6781
19406,6781
" /> 
<polyline style="fill-rule:evenodd;"
points="19726,6781
19726,6033
19864,6033
19864,6781
19726,6781
" /> 
<polyline style="fill-rule:evenodd;"
points="20036,6781
20036,6033
20174,6033
20174,6781
20036,6781
" /> 
<polyline style="fill-rule:evenodd;"
points="20346,6781
20346,6033
20484,6033
20484,6781
20346,6781
" /> 
<polyline style="fill-rule:evenodd;"
points="20666,6781
20666,6033
20804,6033
20804,6781
20666,6781
" /> 
<polyline style="fill-rule:evenodd;"
points="20986,6781
20986,6033
21124,6033
21124,6781
20986,6781
" /> 
<polyline style="fill-rule:evenodd;"
points="21306,6781
21306,6033
21444,6033
21444,6781
21306,6781
" /> 
</g> 
</svg>
