<?xml version="1.0" standalone="no"?>
 <!DOCTYPE svg PUBLIC "-//W3C//DTD SVG 1.1//EN" 
 "http://www.w3.org/Graphics/SVG/1.1/DTD/svg11.dtd"> 
<svg xmlns="http://www.w3.org/2000/svg" version="1.1" 
    width="29.7002cm" height="21.0007cm" viewBox="0 0 116930 82680 ">
<title>SVG Picture created as presentacion-F_SilkS.svg date 2014/07/09 11:47:59 </title>
  <desc>Picture generated by PCBNEW </desc>
<g style="fill:#000000; fill-opacity:1;stroke:#000000; stroke-opacity:1;
stroke-linecap:round; stroke-linejoin:round; "
 transform="translate(0 0) scale(1 1)">
</g>
<g style="fill:#000000; fill-opacity:0.0; 
stroke:#000000; stroke-width:120; stroke-opacity:1; 
stroke-linecap:round; stroke-linejoin:round;">
<circle cx="51968.5" cy="30836.9" r="250" /> 
<path d="M51756 30412
L51820 30348
" />
<path d="M51820 30348
L51607 30136
" />
<path d="M51544 30200
L51756 30412
" />
<path d="M46488 35256
L46488 35609
" />
<path d="M46488 35609
L51791 40913
" />
<path d="M51791 40913
L52145 40913
" />
<path d="M52145 40913
L57448 35609
" />
<path d="M57448 35609
L57448 35256
" />
<path d="M57448 35256
L52145 29952
" />
<path d="M52145 29952
L51791 29952
" />
<path d="M51791 29952
L46488 35256
" />
</g>
<g style="fill:#000000; fill-opacity:0.0; 
stroke:#000000; stroke-width:60; stroke-opacity:1; 
stroke-linecap:round; stroke-linejoin:round;">
<path d="M47255 26680
L46805 26680
" />
<path d="M47255 24500
L46815 24500
" />
<path d="M47255 26680
L47255 24500
" />
<path d="M46375 27150
L46375 27580
" />
<path d="M44165 27160
L44165 27580
" />
<path d="M44155 27580
L46375 27590
" />
<path d="M44175 23610
L46345 23600
" />
<path d="M43745 24300
L43745 27130
" />
<path d="M46355 23610
L46355 24020
" />
<path d="M43995 24060
L46775 24060
" />
<path d="M46795 27140
L46795 24100
" />
<path d="M43745 27140
L46745 27140
" />
<path d="M43295 24470
L43295 26690
" />
<path d="M43295 26690
L43745 26690
" />
<path d="M43749 24290
L43979 24060
" />
<path d="M43297 24470
L43749 24470
" />
<path d="M44175 24060
L44175 23608
" />
<circle cx="44157.6" cy="24464.6" r="188.68" /> 
<path d="M68909 40460
L68459 40460
" />
<path d="M68909 38280
L68469 38280
" />
<path d="M68909 40460
L68909 38280
" />
<path d="M68029 40930
L68029 41360
" />
<path d="M65819 40940
L65819 41360
" />
<path d="M65809 41360
L68029 41370
" />
<path d="M65829 37390
L67999 37380
" />
<path d="M65399 38080
L65399 40910
" />
<path d="M68009 37390
L68009 37800
" />
<path d="M65649 37840
L68429 37840
" />
<path d="M68449 40920
L68449 37880
" />
<path d="M65399 40920
L68399 40920
" />
<path d="M64949 38250
L64949 40470
" />
<path d="M64949 40470
L65399 40470
" />
<path d="M65403 38070
L65633 37840
" />
<path d="M64951 38250
L65403 38250
" />
<path d="M65829 37840
L65829 37388
" />
<circle cx="65811.1" cy="38244.1" r="188.68" /> 
<path d="M55129 46365
L54679 46365
" />
<path d="M55129 44185
L54689 44185
" />
<path d="M55129 46365
L55129 44185
" />
<path d="M54249 46835
L54249 47265
" />
<path d="M52039 46845
L52039 47265
" />
<path d="M52029 47265
L54249 47275
" />
<path d="M52049 43295
L54219 43285
" />
<path d="M51619 43985
L51619 46815
" />
<path d="M54229 43295
L54229 43705
" />
<path d="M51869 43745
L54649 43745
" />
<path d="M54669 46825
L54669 43785
" />
<path d="M51619 46825
L54619 46825
" />
<path d="M51169 44155
L51169 46375
" />
<path d="M51169 46375
L51619 46375
" />
<path d="M51623 43975
L51853 43745
" />
<path d="M51171 44155
L51623 44155
" />
<path d="M52049 43745
L52049 43293
" />
<circle cx="52031.6" cy="44149.6" r="188.68" /> 
<path d="M39381 38491
L38931 38491
" />
<path d="M39381 36311
L38941 36311
" />
<path d="M39381 38491
L39381 36311
" />
<path d="M38501 38961
L38501 39391
" />
<path d="M36291 38971
L36291 39391
" />
<path d="M36281 39391
L38501 39401
" />
<path d="M36301 35421
L38471 35411
" />
<path d="M35871 36111
L35871 38941
" />
<path d="M38481 35421
L38481 35831
" />
<path d="M36121 35871
L38901 35871
" />
<path d="M38921 38951
L38921 35911
" />
<path d="M35871 38951
L38871 38951
" />
<path d="M35421 36281
L35421 38501
" />
<path d="M35421 38501
L35871 38501
" />
<path d="M35875 36101
L36105 35871
" />
<path d="M35423 36281
L35875 36281
" />
<path d="M36301 35871
L36301 35419
" />
<circle cx="36283.6" cy="36275.6" r="188.68" /> 
<path d="M39381 46365
L38931 46365
" />
<path d="M39381 44185
L38941 44185
" />
<path d="M39381 46365
L39381 44185
" />
<path d="M38501 46835
L38501 47265
" />
<path d="M36291 46845
L36291 47265
" />
<path d="M36281 47265
L38501 47275
" />
<path d="M36301 43295
L38471 43285
" />
<path d="M35871 43985
L35871 46815
" />
<path d="M38481 43295
L38481 43705
" />
<path d="M36121 43745
L38901 43745
" />
<path d="M38921 46825
L38921 43785
" />
<path d="M35871 46825
L38871 46825
" />
<path d="M35421 44155
L35421 46375
" />
<path d="M35421 46375
L35871 46375
" />
<path d="M35875 43975
L36105 43745
" />
<path d="M35423 44155
L35875 44155
" />
<path d="M36301 43745
L36301 43293
" />
<circle cx="36283.6" cy="44149.6" r="188.68" /> 
<path d="M47255 46365
L46805 46365
" />
<path d="M47255 44185
L46815 44185
" />
<path d="M47255 46365
L47255 44185
" />
<path d="M46375 46835
L46375 47265
" />
<path d="M44165 46845
L44165 47265
" />
<path d="M44155 47265
L46375 47275
" />
<path d="M44175 43295
L46345 43285
" />
<path d="M43745 43985
L43745 46815
" />
<path d="M46355 43295
L46355 43705
" />
<path d="M43995 43745
L46775 43745
" />
<path d="M46795 46825
L46795 43785
" />
<path d="M43745 46825
L46745 46825
" />
<path d="M43295 44155
L43295 46375
" />
<path d="M43295 46375
L43745 46375
" />
<path d="M43749 43975
L43979 43745
" />
<path d="M43297 44155
L43749 44155
" />
<path d="M44175 43745
L44175 43293
" />
<circle cx="44157.6" cy="44149.6" r="188.68" /> 
<path d="M63003 46365
L62553 46365
" />
<path d="M63003 44185
L62563 44185
" />
<path d="M63003 46365
L63003 44185
" />
<path d="M62123 46835
L62123 47265
" />
<path d="M59913 46845
L59913 47265
" />
<path d="M59903 47265
L62123 47275
" />
<path d="M59923 43295
L62093 43285
" />
<path d="M59493 43985
L59493 46815
" />
<path d="M62103 43295
L62103 43705
" />
<path d="M59743 43745
L62523 43745
" />
<path d="M62543 46825
L62543 43785
" />
<path d="M59493 46825
L62493 46825
" />
<path d="M59043 44155
L59043 46375
" />
<path d="M59043 46375
L59493 46375
" />
<path d="M59497 43975
L59727 43745
" />
<path d="M59045 44155
L59497 44155
" />
<path d="M59923 43745
L59923 43293
" />
<circle cx="59905.6" cy="44149.6" r="188.68" /> 
<path d="M68909 32586
L68459 32586
" />
<path d="M68909 30406
L68469 30406
" />
<path d="M68909 32586
L68909 30406
" />
<path d="M68029 33056
L68029 33486
" />
<path d="M65819 33066
L65819 33486
" />
<path d="M65809 33486
L68029 33496
" />
<path d="M65829 29516
L67999 29506
" />
<path d="M65399 30206
L65399 33036
" />
<path d="M68009 29516
L68009 29926
" />
<path d="M65649 29966
L68429 29966
" />
<path d="M68449 33046
L68449 30006
" />
<path d="M65399 33046
L68399 33046
" />
<path d="M64949 30376
L64949 32596
" />
<path d="M64949 32596
L65399 32596
" />
<path d="M65403 30196
L65633 29966
" />
<path d="M64951 30376
L65403 30376
" />
<path d="M65829 29966
L65829 29514
" />
<circle cx="65811.1" cy="30370.1" r="188.68" /> 
<path d="M63003 26680
L62553 26680
" />
<path d="M63003 24500
L62563 24500
" />
<path d="M63003 26680
L63003 24500
" />
<path d="M62123 27150
L62123 27580
" />
<path d="M59913 27160
L59913 27580
" />
<path d="M59903 27580
L62123 27590
" />
<path d="M59923 23610
L62093 23600
" />
<path d="M59493 24300
L59493 27130
" />
<path d="M62103 23610
L62103 24020
" />
<path d="M59743 24060
L62523 24060
" />
<path d="M62543 27140
L62543 24100
" />
<path d="M59493 27140
L62493 27140
" />
<path d="M59043 24470
L59043 26690
" />
<path d="M59043 26690
L59493 26690
" />
<path d="M59497 24290
L59727 24060
" />
<path d="M59045 24470
L59497 24470
" />
<path d="M59923 24060
L59923 23608
" />
<circle cx="59905.6" cy="24464.6" r="188.68" /> 
<path d="M55129 26680
L54679 26680
" />
<path d="M55129 24500
L54689 24500
" />
<path d="M55129 26680
L55129 24500
" />
<path d="M54249 27150
L54249 27580
" />
<path d="M52039 27160
L52039 27580
" />
<path d="M52029 27580
L54249 27590
" />
<path d="M52049 23610
L54219 23600
" />
<path d="M51619 24300
L51619 27130
" />
<path d="M54229 23610
L54229 24020
" />
<path d="M51869 24060
L54649 24060
" />
<path d="M54669 27140
L54669 24100
" />
<path d="M51619 27140
L54619 27140
" />
<path d="M51169 24470
L51169 26690
" />
<path d="M51169 26690
L51619 26690
" />
<path d="M51623 24290
L51853 24060
" />
<path d="M51171 24470
L51623 24470
" />
<path d="M52049 24060
L52049 23608
" />
<circle cx="52031.6" cy="24464.6" r="188.68" /> 
</g>
<g style="fill:#000000; fill-opacity:0.0; 
stroke:#000000; stroke-width:120; stroke-opacity:1; 
stroke-linecap:round; stroke-linejoin:round;">
</g>
<g style="fill:#000000; fill-opacity:0.0; 
stroke:#000000; stroke-width:100; stroke-opacity:1; 
stroke-linecap:round; stroke-linejoin:round;">
<path d="M50310 35566
L50471 35404
" />
<path d="M50815 35909
L50390 35485
" />
<path d="M51219 35586
L51172 35593
L51104 35579
L51003 35559
L50956 35566
L50929 35593
" />
<path d="M51044 35680
L50997 35687
L50929 35673
L50835 35606
L50694 35465
L50626 35370
L50613 35303
L50619 35256
L50673 35202
L50720 35195
L50788 35209
L50882 35276
L51024 35417
L51091 35512
L51104 35579
L51098 35626
L51044 35680
" />
<path d="M51158 35121
L51064 35215
" />
<path d="M51286 35438
L50862 35013
L50997 34879
" />
<path d="M51529 35195
L51104 34771
L51212 34663
L51259 34656
L51293 34663
L51347 34690
L51407 34751
L51434 34805
L51441 34838
L51434 34885
L51327 34993
" />
<path d="M51960 34764
L51798 34926
" />
<path d="M51879 34845
L51455 34421
L51488 34508
L51502 34576
L51495 34623
" />
<path d="M51919 34239
L52202 34522
" />
<path d="M51690 34145
L51926 34515
L52101 34340
" />
<path d="M52189 33970
L52471 34252
" />
<path d="M51960 33875
L52195 34246
L52370 34071
" />
</g>
<g style="fill:#000000; fill-opacity:0.0; 
stroke:#000000; stroke-width:120; stroke-opacity:1; 
stroke-linecap:round; stroke-linejoin:round;">
</g>
<g style="fill:#000000; fill-opacity:0.0; 
stroke:#000000; stroke-width:100; stroke-opacity:1; 
stroke-linecap:round; stroke-linejoin:round;">
<path d="M51721 36276
L52239 36606
L51909 36087
" />
<path d="M52293 36310
L52428 36175
" />
<path d="M52387 36458
L52057 35939
L52576 36269
" />
<path d="M52805 36040
L52670 36175
L52246 35751
" />
<path d="M52515 35481
L52616 35582
" />
<path d="M52508 35609
L52616 35582
L52643 35475
" />
<path d="M52657 35704
L52616 35582
L52737 35623
" />
<path d="M52731 35266
L52832 35367
" />
<path d="M52724 35394
L52832 35367
L52859 35259
" />
<path d="M52872 35488
L52832 35367
L52953 35407
" />
</g>
<g style="fill:#000000; fill-opacity:0.0; 
stroke:#000000; stroke-width:120; stroke-opacity:1; 
stroke-linecap:round; stroke-linejoin:round;">
</g>
<g style="fill:#000000; fill-opacity:0.0; 
stroke:#000000; stroke-width:80; stroke-opacity:1; 
stroke-linecap:round; stroke-linejoin:round;">
<path d="M44199 24816
L44427 24816
" />
<path d="M44313 25316
L44313 24816
" />
<path d="M44827 25364
L44789 25340
L44751 25292
L44694 25221
L44656 25197
L44618 25197
" />
<path d="M44637 25316
L44599 25292
L44561 25245
L44542 25150
L44542 24983
L44561 24888
L44599 24840
L44637 24816
L44713 24816
L44751 24840
L44789 24888
L44808 24983
L44808 25150
L44789 25245
L44751 25292
L44713 25316
L44637 25316
" />
<path d="M45113 25054
L44980 25054
" />
<path d="M44980 25316
L44980 24816
L45170 24816
" />
<path d="M45323 25316
L45323 24816
L45475 24816
L45513 24840
L45532 24864
L45551 24911
L45551 24983
L45532 25031
L45513 25054
L45475 25078
L45323 25078
" />
<path d="M45685 24816
L45932 24816
L45799 25007
L45856 25007
L45894 25031
L45913 25054
L45932 25102
L45932 25221
L45913 25269
L45894 25292
L45856 25316
L45742 25316
L45704 25292
L45685 25269
" />
<path d="M46085 24864
L46104 24840
L46142 24816
L46237 24816
L46275 24840
L46294 24864
L46313 24911
L46313 24959
L46294 25031
L46066 25316
L46313 25316
" />
<path d="M44504 26066
L44637 26566
L44770 26066
" />
<path d="M44885 26423
L45075 26423
" />
<path d="M44847 26566
L44980 26066
L45113 26566
" />
<path d="M45437 26566
L45247 26566
L45247 26066
" />
<path d="M45627 26066
L45627 26185
" />
<path d="M45532 26138
L45627 26185
L45723 26138
" />
<path d="M45570 26281
L45627 26185
L45685 26281
" />
<path d="M45932 26066
L45932 26185
" />
<path d="M45837 26138
L45932 26185
L46027 26138
" />
<path d="M45875 26281
L45932 26185
L45989 26281
" />
<path d="M65852 38596
L66081 38596
" />
<path d="M65967 39096
L65967 38596
" />
<path d="M66481 39143
L66443 39120
L66405 39072
L66348 39001
L66310 38977
L66271 38977
" />
<path d="M66291 39096
L66252 39072
L66214 39024
L66195 38929
L66195 38762
L66214 38667
L66252 38620
L66291 38596
L66367 38596
L66405 38620
L66443 38667
L66462 38762
L66462 38929
L66443 39024
L66405 39072
L66367 39096
L66291 39096
" />
<path d="M66767 38834
L66633 38834
" />
<path d="M66633 39096
L66633 38596
L66824 38596
" />
<path d="M66976 39096
L66976 38596
L67129 38596
L67167 38620
L67186 38643
L67205 38691
L67205 38762
L67186 38810
L67167 38834
L67129 38858
L66976 38858
" />
<path d="M67338 38596
L67586 38596
L67452 38786
L67510 38786
L67548 38810
L67567 38834
L67586 38881
L67586 39001
L67567 39048
L67548 39072
L67510 39096
L67395 39096
L67357 39072
L67338 39048
" />
<path d="M67738 38643
L67757 38620
L67795 38596
L67891 38596
L67929 38620
L67948 38643
L67967 38691
L67967 38739
L67948 38810
L67719 39096
L67967 39096
" />
<path d="M66157 39846
L66291 40346
L66424 39846
" />
<path d="M66538 40203
L66729 40203
" />
<path d="M66500 40346
L66633 39846
L66767 40346
" />
<path d="M67091 40346
L66900 40346
L66900 39846
" />
<path d="M67281 39846
L67281 39965
" />
<path d="M67186 39917
L67281 39965
L67376 39917
" />
<path d="M67224 40060
L67281 39965
L67338 40060
" />
<path d="M67586 39846
L67586 39965
" />
<path d="M67491 39917
L67586 39965
L67681 39917
" />
<path d="M67529 40060
L67586 39965
L67643 40060
" />
<path d="M52073 44501
L52301 44501
" />
<path d="M52187 45001
L52187 44501
" />
<path d="M52701 45049
L52663 45025
L52625 44977
L52568 44906
L52530 44882
L52492 44882
" />
<path d="M52511 45001
L52473 44977
L52435 44930
L52416 44835
L52416 44668
L52435 44573
L52473 44525
L52511 44501
L52587 44501
L52625 44525
L52663 44573
L52682 44668
L52682 44835
L52663 44930
L52625 44977
L52587 45001
L52511 45001
" />
<path d="M52987 44739
L52854 44739
" />
<path d="M52854 45001
L52854 44501
L53044 44501
" />
<path d="M53197 45001
L53197 44501
L53349 44501
L53387 44525
L53406 44549
L53425 44597
L53425 44668
L53406 44716
L53387 44739
L53349 44763
L53197 44763
" />
<path d="M53559 44501
L53806 44501
L53673 44692
L53730 44692
L53768 44716
L53787 44739
L53806 44787
L53806 44906
L53787 44954
L53768 44977
L53730 45001
L53616 45001
L53578 44977
L53559 44954
" />
<path d="M53959 44549
L53978 44525
L54016 44501
L54111 44501
L54149 44525
L54168 44549
L54187 44597
L54187 44644
L54168 44716
L53940 45001
L54187 45001
" />
<path d="M52378 45751
L52511 46251
L52644 45751
" />
<path d="M52759 46108
L52949 46108
" />
<path d="M52721 46251
L52854 45751
L52987 46251
" />
<path d="M53311 46251
L53121 46251
L53121 45751
" />
<path d="M53501 45751
L53501 45870
" />
<path d="M53406 45823
L53501 45870
L53597 45823
" />
<path d="M53444 45966
L53501 45870
L53559 45966
" />
<path d="M53806 45751
L53806 45870
" />
<path d="M53711 45823
L53806 45870
L53901 45823
" />
<path d="M53749 45966
L53806 45870
L53863 45966
" />
<path d="M36325 36627
L36553 36627
" />
<path d="M36439 37127
L36439 36627
" />
<path d="M36953 37175
L36915 37151
L36877 37103
L36820 37032
L36782 37008
L36744 37008
" />
<path d="M36763 37127
L36725 37103
L36687 37056
L36668 36961
L36668 36794
L36687 36699
L36725 36651
L36763 36627
L36839 36627
L36877 36651
L36915 36699
L36934 36794
L36934 36961
L36915 37056
L36877 37103
L36839 37127
L36763 37127
" />
<path d="M37239 36865
L37106 36865
" />
<path d="M37106 37127
L37106 36627
L37296 36627
" />
<path d="M37449 37127
L37449 36627
L37601 36627
L37639 36651
L37658 36675
L37677 36723
L37677 36794
L37658 36842
L37639 36865
L37601 36889
L37449 36889
" />
<path d="M37811 36627
L38058 36627
L37925 36818
L37982 36818
L38020 36842
L38039 36865
L38058 36913
L38058 37032
L38039 37080
L38020 37103
L37982 37127
L37868 37127
L37830 37103
L37811 37080
" />
<path d="M38211 36675
L38230 36651
L38268 36627
L38363 36627
L38401 36651
L38420 36675
L38439 36723
L38439 36770
L38420 36842
L38192 37127
L38439 37127
" />
<path d="M36630 37877
L36763 38377
L36896 37877
" />
<path d="M37011 38234
L37201 38234
" />
<path d="M36973 38377
L37106 37877
L37239 38377
" />
<path d="M37563 38377
L37373 38377
L37373 37877
" />
<path d="M37753 37877
L37753 37996
" />
<path d="M37658 37949
L37753 37996
L37849 37949
" />
<path d="M37696 38092
L37753 37996
L37811 38092
" />
<path d="M38058 37877
L38058 37996
" />
<path d="M37963 37949
L38058 37996
L38153 37949
" />
<path d="M38001 38092
L38058 37996
L38115 38092
" />
<path d="M36325 44501
L36553 44501
" />
<path d="M36439 45001
L36439 44501
" />
<path d="M36953 45049
L36915 45025
L36877 44977
L36820 44906
L36782 44882
L36744 44882
" />
<path d="M36763 45001
L36725 44977
L36687 44930
L36668 44835
L36668 44668
L36687 44573
L36725 44525
L36763 44501
L36839 44501
L36877 44525
L36915 44573
L36934 44668
L36934 44835
L36915 44930
L36877 44977
L36839 45001
L36763 45001
" />
<path d="M37239 44739
L37106 44739
" />
<path d="M37106 45001
L37106 44501
L37296 44501
" />
<path d="M37449 45001
L37449 44501
L37601 44501
L37639 44525
L37658 44549
L37677 44597
L37677 44668
L37658 44716
L37639 44739
L37601 44763
L37449 44763
" />
<path d="M37811 44501
L38058 44501
L37925 44692
L37982 44692
L38020 44716
L38039 44739
L38058 44787
L38058 44906
L38039 44954
L38020 44977
L37982 45001
L37868 45001
L37830 44977
L37811 44954
" />
<path d="M38211 44549
L38230 44525
L38268 44501
L38363 44501
L38401 44525
L38420 44549
L38439 44597
L38439 44644
L38420 44716
L38192 45001
L38439 45001
" />
<path d="M36630 45751
L36763 46251
L36896 45751
" />
<path d="M37011 46108
L37201 46108
" />
<path d="M36973 46251
L37106 45751
L37239 46251
" />
<path d="M37563 46251
L37373 46251
L37373 45751
" />
<path d="M37753 45751
L37753 45870
" />
<path d="M37658 45823
L37753 45870
L37849 45823
" />
<path d="M37696 45966
L37753 45870
L37811 45966
" />
<path d="M38058 45751
L38058 45870
" />
<path d="M37963 45823
L38058 45870
L38153 45823
" />
<path d="M38001 45966
L38058 45870
L38115 45966
" />
<path d="M44199 44501
L44427 44501
" />
<path d="M44313 45001
L44313 44501
" />
<path d="M44827 45049
L44789 45025
L44751 44977
L44694 44906
L44656 44882
L44618 44882
" />
<path d="M44637 45001
L44599 44977
L44561 44930
L44542 44835
L44542 44668
L44561 44573
L44599 44525
L44637 44501
L44713 44501
L44751 44525
L44789 44573
L44808 44668
L44808 44835
L44789 44930
L44751 44977
L44713 45001
L44637 45001
" />
<path d="M45113 44739
L44980 44739
" />
<path d="M44980 45001
L44980 44501
L45170 44501
" />
<path d="M45323 45001
L45323 44501
L45475 44501
L45513 44525
L45532 44549
L45551 44597
L45551 44668
L45532 44716
L45513 44739
L45475 44763
L45323 44763
" />
<path d="M45685 44501
L45932 44501
L45799 44692
L45856 44692
L45894 44716
L45913 44739
L45932 44787
L45932 44906
L45913 44954
L45894 44977
L45856 45001
L45742 45001
L45704 44977
L45685 44954
" />
<path d="M46085 44549
L46104 44525
L46142 44501
L46237 44501
L46275 44525
L46294 44549
L46313 44597
L46313 44644
L46294 44716
L46066 45001
L46313 45001
" />
<path d="M44504 45751
L44637 46251
L44770 45751
" />
<path d="M44885 46108
L45075 46108
" />
<path d="M44847 46251
L44980 45751
L45113 46251
" />
<path d="M45437 46251
L45247 46251
L45247 45751
" />
<path d="M45627 45751
L45627 45870
" />
<path d="M45532 45823
L45627 45870
L45723 45823
" />
<path d="M45570 45966
L45627 45870
L45685 45966
" />
<path d="M45932 45751
L45932 45870
" />
<path d="M45837 45823
L45932 45870
L46027 45823
" />
<path d="M45875 45966
L45932 45870
L45989 45966
" />
<path d="M59947 44501
L60176 44501
" />
<path d="M60061 45001
L60061 44501
" />
<path d="M60576 45049
L60537 45025
L60499 44977
L60442 44906
L60404 44882
L60366 44882
" />
<path d="M60385 45001
L60347 44977
L60309 44930
L60290 44835
L60290 44668
L60309 44573
L60347 44525
L60385 44501
L60461 44501
L60499 44525
L60537 44573
L60556 44668
L60556 44835
L60537 44930
L60499 44977
L60461 45001
L60385 45001
" />
<path d="M60861 44739
L60728 44739
" />
<path d="M60728 45001
L60728 44501
L60918 44501
" />
<path d="M61071 45001
L61071 44501
L61223 44501
L61261 44525
L61280 44549
L61299 44597
L61299 44668
L61280 44716
L61261 44739
L61223 44763
L61071 44763
" />
<path d="M61433 44501
L61680 44501
L61547 44692
L61604 44692
L61642 44716
L61661 44739
L61680 44787
L61680 44906
L61661 44954
L61642 44977
L61604 45001
L61490 45001
L61452 44977
L61433 44954
" />
<path d="M61833 44549
L61852 44525
L61890 44501
L61985 44501
L62023 44525
L62042 44549
L62061 44597
L62061 44644
L62042 44716
L61814 45001
L62061 45001
" />
<path d="M60252 45751
L60385 46251
L60518 45751
" />
<path d="M60633 46108
L60823 46108
" />
<path d="M60595 46251
L60728 45751
L60861 46251
" />
<path d="M61185 46251
L60995 46251
L60995 45751
" />
<path d="M61376 45751
L61376 45870
" />
<path d="M61280 45823
L61376 45870
L61471 45823
" />
<path d="M61318 45966
L61376 45870
L61433 45966
" />
<path d="M61680 45751
L61680 45870
" />
<path d="M61585 45823
L61680 45870
L61776 45823
" />
<path d="M61623 45966
L61680 45870
L61737 45966
" />
<path d="M65852 30722
L66081 30722
" />
<path d="M65967 31222
L65967 30722
" />
<path d="M66481 31269
L66443 31246
L66405 31198
L66348 31127
L66310 31103
L66271 31103
" />
<path d="M66291 31222
L66252 31198
L66214 31150
L66195 31055
L66195 30888
L66214 30793
L66252 30746
L66291 30722
L66367 30722
L66405 30746
L66443 30793
L66462 30888
L66462 31055
L66443 31150
L66405 31198
L66367 31222
L66291 31222
" />
<path d="M66767 30960
L66633 30960
" />
<path d="M66633 31222
L66633 30722
L66824 30722
" />
<path d="M66976 31222
L66976 30722
L67129 30722
L67167 30746
L67186 30769
L67205 30817
L67205 30888
L67186 30936
L67167 30960
L67129 30984
L66976 30984
" />
<path d="M67338 30722
L67586 30722
L67452 30912
L67510 30912
L67548 30936
L67567 30960
L67586 31007
L67586 31127
L67567 31174
L67548 31198
L67510 31222
L67395 31222
L67357 31198
L67338 31174
" />
<path d="M67738 30769
L67757 30746
L67795 30722
L67891 30722
L67929 30746
L67948 30769
L67967 30817
L67967 30865
L67948 30936
L67719 31222
L67967 31222
" />
<path d="M66157 31972
L66291 32472
L66424 31972
" />
<path d="M66538 32329
L66729 32329
" />
<path d="M66500 32472
L66633 31972
L66767 32472
" />
<path d="M67091 32472
L66900 32472
L66900 31972
" />
<path d="M67281 31972
L67281 32091
" />
<path d="M67186 32043
L67281 32091
L67376 32043
" />
<path d="M67224 32186
L67281 32091
L67338 32186
" />
<path d="M67586 31972
L67586 32091
" />
<path d="M67491 32043
L67586 32091
L67681 32043
" />
<path d="M67529 32186
L67586 32091
L67643 32186
" />
<path d="M59947 24816
L60176 24816
" />
<path d="M60061 25316
L60061 24816
" />
<path d="M60576 25364
L60537 25340
L60499 25292
L60442 25221
L60404 25197
L60366 25197
" />
<path d="M60385 25316
L60347 25292
L60309 25245
L60290 25150
L60290 24983
L60309 24888
L60347 24840
L60385 24816
L60461 24816
L60499 24840
L60537 24888
L60556 24983
L60556 25150
L60537 25245
L60499 25292
L60461 25316
L60385 25316
" />
<path d="M60861 25054
L60728 25054
" />
<path d="M60728 25316
L60728 24816
L60918 24816
" />
<path d="M61071 25316
L61071 24816
L61223 24816
L61261 24840
L61280 24864
L61299 24911
L61299 24983
L61280 25031
L61261 25054
L61223 25078
L61071 25078
" />
<path d="M61433 24816
L61680 24816
L61547 25007
L61604 25007
L61642 25031
L61661 25054
L61680 25102
L61680 25221
L61661 25269
L61642 25292
L61604 25316
L61490 25316
L61452 25292
L61433 25269
" />
<path d="M61833 24864
L61852 24840
L61890 24816
L61985 24816
L62023 24840
L62042 24864
L62061 24911
L62061 24959
L62042 25031
L61814 25316
L62061 25316
" />
<path d="M60252 26066
L60385 26566
L60518 26066
" />
<path d="M60633 26423
L60823 26423
" />
<path d="M60595 26566
L60728 26066
L60861 26566
" />
<path d="M61185 26566
L60995 26566
L60995 26066
" />
<path d="M61376 26066
L61376 26185
" />
<path d="M61280 26138
L61376 26185
L61471 26138
" />
<path d="M61318 26281
L61376 26185
L61433 26281
" />
<path d="M61680 26066
L61680 26185
" />
<path d="M61585 26138
L61680 26185
L61776 26138
" />
<path d="M61623 26281
L61680 26185
L61737 26281
" />
<path d="M52073 24816
L52301 24816
" />
<path d="M52187 25316
L52187 24816
" />
<path d="M52701 25364
L52663 25340
L52625 25292
L52568 25221
L52530 25197
L52492 25197
" />
<path d="M52511 25316
L52473 25292
L52435 25245
L52416 25150
L52416 24983
L52435 24888
L52473 24840
L52511 24816
L52587 24816
L52625 24840
L52663 24888
L52682 24983
L52682 25150
L52663 25245
L52625 25292
L52587 25316
L52511 25316
" />
<path d="M52987 25054
L52854 25054
" />
<path d="M52854 25316
L52854 24816
L53044 24816
" />
<path d="M53197 25316
L53197 24816
L53349 24816
L53387 24840
L53406 24864
L53425 24911
L53425 24983
L53406 25031
L53387 25054
L53349 25078
L53197 25078
" />
<path d="M53559 24816
L53806 24816
L53673 25007
L53730 25007
L53768 25031
L53787 25054
L53806 25102
L53806 25221
L53787 25269
L53768 25292
L53730 25316
L53616 25316
L53578 25292
L53559 25269
" />
<path d="M53959 24864
L53978 24840
L54016 24816
L54111 24816
L54149 24840
L54168 24864
L54187 24911
L54187 24959
L54168 25031
L53940 25316
L54187 25316
" />
<path d="M52378 26066
L52511 26566
L52644 26066
" />
<path d="M52759 26423
L52949 26423
" />
<path d="M52721 26566
L52854 26066
L52987 26566
" />
<path d="M53311 26566
L53121 26566
L53121 26066
" />
<path d="M53501 26066
L53501 26185
" />
<path d="M53406 26138
L53501 26185
L53597 26138
" />
<path d="M53444 26281
L53501 26185
L53559 26281
" />
<path d="M53806 26066
L53806 26185
" />
<path d="M53711 26138
L53806 26185
L53901 26138
" />
<path d="M53749 26281
L53806 26185
L53863 26281
" />
</g> 
</svg>
